%TF.GenerationSoftware,KiCad,Pcbnew,9.0.2*%
%TF.CreationDate,2026-04-01T23:51:12-04:00*%
%TF.ProjectId,meepolab pcb,6d656570-6f6c-4616-9220-7063622e6b69,rev?*%
%TF.SameCoordinates,Original*%
%TF.FileFunction,Paste,Bot*%
%TF.FilePolarity,Positive*%
%FSLAX46Y46*%
G04 Gerber Fmt 4.6, Leading zero omitted, Abs format (unit mm)*
G04 Created by KiCad (PCBNEW 9.0.2) date 2026-04-01 23:51:12*
%MOMM*%
%LPD*%
G01*
G04 APERTURE LIST*
G04 Aperture macros list*
%AMRoundRect*
0 Rectangle with rounded corners*
0 $1 Rounding radius*
0 $2 $3 $4 $5 $6 $7 $8 $9 X,Y pos of 4 corners*
0 Add a 4 corners polygon primitive as box body*
4,1,4,$2,$3,$4,$5,$6,$7,$8,$9,$2,$3,0*
0 Add four circle primitives for the rounded corners*
1,1,$1+$1,$2,$3*
1,1,$1+$1,$4,$5*
1,1,$1+$1,$6,$7*
1,1,$1+$1,$8,$9*
0 Add four rect primitives between the rounded corners*
20,1,$1+$1,$2,$3,$4,$5,0*
20,1,$1+$1,$4,$5,$6,$7,0*
20,1,$1+$1,$6,$7,$8,$9,0*
20,1,$1+$1,$8,$9,$2,$3,0*%
G04 Aperture macros list end*
%ADD10RoundRect,0.112500X0.187500X0.112500X-0.187500X0.112500X-0.187500X-0.112500X0.187500X-0.112500X0*%
%ADD11RoundRect,0.135000X-0.135000X-0.185000X0.135000X-0.185000X0.135000X0.185000X-0.135000X0.185000X0*%
%ADD12RoundRect,0.150000X0.825000X0.150000X-0.825000X0.150000X-0.825000X-0.150000X0.825000X-0.150000X0*%
%ADD13RoundRect,0.079500X0.079500X0.100500X-0.079500X0.100500X-0.079500X-0.100500X0.079500X-0.100500X0*%
%ADD14RoundRect,0.225000X-0.225000X-0.375000X0.225000X-0.375000X0.225000X0.375000X-0.225000X0.375000X0*%
%ADD15RoundRect,0.250000X-0.262500X-0.450000X0.262500X-0.450000X0.262500X0.450000X-0.262500X0.450000X0*%
%ADD16RoundRect,0.079500X-0.079500X-0.100500X0.079500X-0.100500X0.079500X0.100500X-0.079500X0.100500X0*%
G04 APERTURE END LIST*
D10*
%TO.C,D70*%
X228600000Y-97000000D03*
X226500000Y-97000000D03*
%TD*%
D11*
%TO.C,R37*%
X211270000Y-45500000D03*
X212290000Y-45500000D03*
%TD*%
D10*
%TO.C,D79*%
X210150000Y-92000000D03*
X208050000Y-92000000D03*
%TD*%
%TO.C,D72*%
X238600000Y-97000000D03*
X236500000Y-97000000D03*
%TD*%
D12*
%TO.C,U7*%
X187450000Y-45380000D03*
X187450000Y-46650000D03*
X187450000Y-47920000D03*
X187450000Y-49190000D03*
X187450000Y-50460000D03*
X187450000Y-51730000D03*
X187450000Y-53000000D03*
X187450000Y-54270000D03*
X182500000Y-54270000D03*
X182500000Y-53000000D03*
X182500000Y-51730000D03*
X182500000Y-50460000D03*
X182500000Y-49190000D03*
X182500000Y-47920000D03*
X182500000Y-46650000D03*
X182500000Y-45380000D03*
%TD*%
D10*
%TO.C,D45*%
X223650000Y-87000000D03*
X221550000Y-87000000D03*
%TD*%
D11*
%TO.C,R20*%
X170240000Y-77100000D03*
X171260000Y-77100000D03*
%TD*%
D10*
%TO.C,D62*%
X248600000Y-77000000D03*
X246500000Y-77000000D03*
%TD*%
D11*
%TO.C,R42*%
X200470000Y-45500000D03*
X201490000Y-45500000D03*
%TD*%
%TO.C,R3*%
X153240000Y-67100000D03*
X154260000Y-67100000D03*
%TD*%
D10*
%TO.C,D82*%
X195100000Y-97000000D03*
X193000000Y-97000000D03*
%TD*%
D11*
%TO.C,R21*%
X170240000Y-62300000D03*
X171260000Y-62300000D03*
%TD*%
D10*
%TO.C,D36*%
X238600000Y-87000000D03*
X236500000Y-87000000D03*
%TD*%
D11*
%TO.C,R31*%
X178740000Y-92100000D03*
X179760000Y-92100000D03*
%TD*%
D10*
%TO.C,D43*%
X233650000Y-82000000D03*
X231550000Y-82000000D03*
%TD*%
D13*
%TO.C,C1*%
X194845000Y-56500000D03*
X194155000Y-56500000D03*
%TD*%
D14*
%TO.C,D104*%
X199700000Y-52500000D03*
X203000000Y-52500000D03*
%TD*%
D11*
%TO.C,R18*%
X161740000Y-87100000D03*
X162760000Y-87100000D03*
%TD*%
%TO.C,R23*%
X170240000Y-82100000D03*
X171260000Y-82100000D03*
%TD*%
%TO.C,R35*%
X205770000Y-45500000D03*
X206790000Y-45500000D03*
%TD*%
%TO.C,R12*%
X161740000Y-62300000D03*
X162760000Y-62300000D03*
%TD*%
D12*
%TO.C,U5*%
X166500000Y-45260000D03*
X166500000Y-46530000D03*
X166500000Y-47800000D03*
X166500000Y-49070000D03*
X166500000Y-50340000D03*
X166500000Y-51610000D03*
X166500000Y-52880000D03*
X166500000Y-54150000D03*
X161550000Y-54150000D03*
X161550000Y-52880000D03*
X161550000Y-51610000D03*
X161550000Y-50340000D03*
X161550000Y-49070000D03*
X161550000Y-47800000D03*
X161550000Y-46530000D03*
X161550000Y-45260000D03*
%TD*%
D15*
%TO.C,R1*%
X194000000Y-66500000D03*
X195825000Y-66500000D03*
%TD*%
D11*
%TO.C,R33*%
X178740000Y-82100000D03*
X179760000Y-82100000D03*
%TD*%
%TO.C,R24*%
X170240000Y-87100000D03*
X171260000Y-87100000D03*
%TD*%
D16*
%TO.C,C2*%
X209655000Y-61500000D03*
X210345000Y-61500000D03*
%TD*%
D14*
%TO.C,D105*%
X200200000Y-50000000D03*
X203500000Y-50000000D03*
%TD*%
D10*
%TO.C,D47*%
X210050000Y-82000000D03*
X207950000Y-82000000D03*
%TD*%
D11*
%TO.C,R16*%
X161740000Y-92100000D03*
X162760000Y-92100000D03*
%TD*%
D16*
%TO.C,C10*%
X200300000Y-44000000D03*
X200990000Y-44000000D03*
%TD*%
D10*
%TO.C,D74*%
X248650000Y-97000000D03*
X246550000Y-97000000D03*
%TD*%
D14*
%TO.C,D91*%
X210500000Y-47500000D03*
X213800000Y-47500000D03*
%TD*%
D10*
%TO.C,D107*%
X200150000Y-97000000D03*
X198050000Y-97000000D03*
%TD*%
%TO.C,D46*%
X248550000Y-87000000D03*
X246450000Y-87000000D03*
%TD*%
%TO.C,D64*%
X228650000Y-92000000D03*
X226550000Y-92000000D03*
%TD*%
D11*
%TO.C,R4*%
X153240000Y-62100000D03*
X154260000Y-62100000D03*
%TD*%
D14*
%TO.C,D83*%
X205150000Y-52500000D03*
X208450000Y-52500000D03*
%TD*%
D12*
%TO.C,U4*%
X157000000Y-45300000D03*
X157000000Y-46570000D03*
X157000000Y-47840000D03*
X157000000Y-49110000D03*
X157000000Y-50380000D03*
X157000000Y-51650000D03*
X157000000Y-52920000D03*
X157000000Y-54190000D03*
X152050000Y-54190000D03*
X152050000Y-52920000D03*
X152050000Y-51650000D03*
X152050000Y-50380000D03*
X152050000Y-49110000D03*
X152050000Y-47840000D03*
X152050000Y-46570000D03*
X152050000Y-45300000D03*
%TD*%
D14*
%TO.C,D92*%
X194200000Y-52500000D03*
X197500000Y-52500000D03*
%TD*%
D10*
%TO.C,D57*%
X223600000Y-77000000D03*
X221500000Y-77000000D03*
%TD*%
D11*
%TO.C,R5*%
X153240000Y-72300000D03*
X154260000Y-72300000D03*
%TD*%
%TO.C,R9*%
X153240000Y-92100000D03*
X154260000Y-92100000D03*
%TD*%
D14*
%TO.C,D89*%
X210650000Y-52500000D03*
X213950000Y-52500000D03*
%TD*%
D10*
%TO.C,D63*%
X223600000Y-92000000D03*
X221500000Y-92000000D03*
%TD*%
D11*
%TO.C,R13*%
X161740000Y-72300000D03*
X162760000Y-72300000D03*
%TD*%
D14*
%TO.C,D106*%
X200200000Y-47500000D03*
X203500000Y-47500000D03*
%TD*%
D10*
%TO.C,D110*%
X215100000Y-97000000D03*
X213000000Y-97000000D03*
%TD*%
%TO.C,D73*%
X243600000Y-97000000D03*
X241500000Y-97000000D03*
%TD*%
%TO.C,D60*%
X238600000Y-77000000D03*
X236500000Y-77000000D03*
%TD*%
%TO.C,D42*%
X205150000Y-82000000D03*
X203050000Y-82000000D03*
%TD*%
%TO.C,D78*%
X205100000Y-92000000D03*
X203000000Y-92000000D03*
%TD*%
D11*
%TO.C,R7*%
X153240000Y-82300000D03*
X154260000Y-82300000D03*
%TD*%
D10*
%TO.C,D68*%
X248600000Y-92000000D03*
X246500000Y-92000000D03*
%TD*%
%TO.C,D66*%
X238600000Y-92000000D03*
X236500000Y-92000000D03*
%TD*%
%TO.C,D44*%
X195150000Y-87000000D03*
X193050000Y-87000000D03*
%TD*%
D11*
%TO.C,R25*%
X170240000Y-72100000D03*
X171260000Y-72100000D03*
%TD*%
D10*
%TO.C,D51*%
X190100000Y-82000000D03*
X188000000Y-82000000D03*
%TD*%
%TO.C,D59*%
X233550000Y-77000000D03*
X231450000Y-77000000D03*
%TD*%
%TO.C,D111*%
X208050000Y-99000000D03*
X205950000Y-99000000D03*
%TD*%
%TO.C,D33*%
X223600000Y-82000000D03*
X221500000Y-82000000D03*
%TD*%
%TO.C,D56*%
X195100000Y-82000000D03*
X193000000Y-82000000D03*
%TD*%
D12*
%TO.C,U6*%
X176500000Y-45300000D03*
X176500000Y-46570000D03*
X176500000Y-47840000D03*
X176500000Y-49110000D03*
X176500000Y-50380000D03*
X176500000Y-51650000D03*
X176500000Y-52920000D03*
X176500000Y-54190000D03*
X171550000Y-54190000D03*
X171550000Y-52920000D03*
X171550000Y-51650000D03*
X171550000Y-50380000D03*
X171550000Y-49110000D03*
X171550000Y-47840000D03*
X171550000Y-46570000D03*
X171550000Y-45300000D03*
%TD*%
D10*
%TO.C,D49*%
X200100000Y-87000000D03*
X198000000Y-87000000D03*
%TD*%
D11*
%TO.C,R17*%
X161740000Y-97100000D03*
X162760000Y-97100000D03*
%TD*%
D10*
%TO.C,D40*%
X215050000Y-87000000D03*
X212950000Y-87000000D03*
%TD*%
D11*
%TO.C,R14*%
X161740000Y-77100000D03*
X162760000Y-77100000D03*
%TD*%
D10*
%TO.C,D65*%
X233600000Y-92000000D03*
X231500000Y-92000000D03*
%TD*%
D15*
%TO.C,R2*%
X208675000Y-67000000D03*
X210500000Y-67000000D03*
%TD*%
D10*
%TO.C,D61*%
X243100000Y-77000000D03*
X241000000Y-77000000D03*
%TD*%
D14*
%TO.C,D94*%
X194200000Y-47500000D03*
X197500000Y-47500000D03*
%TD*%
D10*
%TO.C,D39*%
X190050000Y-87000000D03*
X187950000Y-87000000D03*
%TD*%
%TO.C,D53*%
X243600000Y-82000000D03*
X241500000Y-82000000D03*
%TD*%
D11*
%TO.C,R27*%
X178740000Y-62100000D03*
X179760000Y-62100000D03*
%TD*%
%TO.C,R32*%
X178740000Y-97100000D03*
X179760000Y-97100000D03*
%TD*%
D10*
%TO.C,D52*%
X215100000Y-82000000D03*
X213000000Y-82000000D03*
%TD*%
%TO.C,D58*%
X228600000Y-77000000D03*
X226500000Y-77000000D03*
%TD*%
%TO.C,D55*%
X233600000Y-87000000D03*
X231500000Y-87000000D03*
%TD*%
D16*
%TO.C,C5*%
X211100000Y-44000000D03*
X211790000Y-44000000D03*
%TD*%
D11*
%TO.C,R10*%
X153240000Y-97100000D03*
X154260000Y-97100000D03*
%TD*%
D16*
%TO.C,C3*%
X205600000Y-44000000D03*
X206290000Y-44000000D03*
%TD*%
D11*
%TO.C,R30*%
X178740000Y-77300000D03*
X179760000Y-77300000D03*
%TD*%
D10*
%TO.C,D69*%
X223650000Y-97000000D03*
X221550000Y-97000000D03*
%TD*%
D11*
%TO.C,R26*%
X170240000Y-92100000D03*
X171260000Y-92100000D03*
%TD*%
D10*
%TO.C,D108*%
X205150000Y-97000000D03*
X203050000Y-97000000D03*
%TD*%
D11*
%TO.C,R19*%
X170240000Y-97100000D03*
X171260000Y-97100000D03*
%TD*%
D10*
%TO.C,D77*%
X200100000Y-92000000D03*
X198000000Y-92000000D03*
%TD*%
D11*
%TO.C,R6*%
X153240000Y-77229712D03*
X154260000Y-77229712D03*
%TD*%
%TO.C,R15*%
X161740000Y-82300000D03*
X162760000Y-82300000D03*
%TD*%
D10*
%TO.C,D67*%
X243600000Y-92000000D03*
X241500000Y-92000000D03*
%TD*%
%TO.C,D38*%
X228550000Y-82000000D03*
X226450000Y-82000000D03*
%TD*%
%TO.C,D35*%
X210100000Y-87000000D03*
X208000000Y-87000000D03*
%TD*%
D11*
%TO.C,R28*%
X178740000Y-72100000D03*
X179760000Y-72100000D03*
%TD*%
D10*
%TO.C,D80*%
X215100000Y-92000000D03*
X213000000Y-92000000D03*
%TD*%
D14*
%TO.C,D90*%
X210500000Y-50000000D03*
X213800000Y-50000000D03*
%TD*%
D10*
%TO.C,D54*%
X205100000Y-87000000D03*
X203000000Y-87000000D03*
%TD*%
%TO.C,D109*%
X210100000Y-97000000D03*
X208000000Y-97000000D03*
%TD*%
%TO.C,D34*%
X248600000Y-82000000D03*
X246500000Y-82000000D03*
%TD*%
%TO.C,D41*%
X243550000Y-87000000D03*
X241450000Y-87000000D03*
%TD*%
D11*
%TO.C,R38*%
X195320000Y-45500000D03*
X196340000Y-45500000D03*
%TD*%
D10*
%TO.C,D71*%
X233600000Y-97000000D03*
X231500000Y-97000000D03*
%TD*%
%TO.C,D81*%
X190100000Y-97000000D03*
X188000000Y-97000000D03*
%TD*%
D11*
%TO.C,R29*%
X178740000Y-87100000D03*
X179760000Y-87100000D03*
%TD*%
D16*
%TO.C,C6*%
X195150000Y-44000000D03*
X195840000Y-44000000D03*
%TD*%
D14*
%TO.C,D93*%
X194350000Y-50000000D03*
X197650000Y-50000000D03*
%TD*%
%TO.C,D85*%
X205500000Y-47500000D03*
X208800000Y-47500000D03*
%TD*%
D11*
%TO.C,R22*%
X170240000Y-67300000D03*
X171260000Y-67300000D03*
%TD*%
D10*
%TO.C,D37*%
X200200000Y-82000000D03*
X198100000Y-82000000D03*
%TD*%
%TO.C,D50*%
X228600000Y-87000000D03*
X226500000Y-87000000D03*
%TD*%
D11*
%TO.C,R11*%
X161740000Y-67100000D03*
X162760000Y-67100000D03*
%TD*%
%TO.C,R34*%
X178740000Y-67100000D03*
X179760000Y-67100000D03*
%TD*%
D10*
%TO.C,D48*%
X238600000Y-82000000D03*
X236500000Y-82000000D03*
%TD*%
%TO.C,D76*%
X195100000Y-92000000D03*
X193000000Y-92000000D03*
%TD*%
D11*
%TO.C,R8*%
X153240000Y-87100000D03*
X154260000Y-87100000D03*
%TD*%
D14*
%TO.C,D84*%
X205500000Y-50000000D03*
X208800000Y-50000000D03*
%TD*%
D10*
%TO.C,D75*%
X190100000Y-92000000D03*
X188000000Y-92000000D03*
%TD*%
M02*
