M48
; DRILL file {KiCad 9.0.2} date 2026-04-01T23:51:04-0400
; FORMAT={-:-/ absolute / metric / decimal}
; #@! TF.CreationDate,2026-04-01T23:51:04-04:00
; #@! TF.GenerationSoftware,Kicad,Pcbnew,9.0.2
; #@! TF.FileFunction,Plated,1,4,PTH
FMAT,2
METRIC
; #@! TA.AperFunction,Plated,PTH,ViaDrill
T1C0.300
; #@! TA.AperFunction,Plated,PTH,ViaDrill
T2C0.400
; #@! TA.AperFunction,Plated,PTH,ComponentDrill
T3C0.800
; #@! TA.AperFunction,Plated,PTH,ComponentDrill
T4C0.950
; #@! TA.AperFunction,Plated,PTH,ComponentDrill
T5C1.000
; #@! TA.AperFunction,Plated,PTH,ComponentDrill
T6C1.100
%
G90
G05
T1
X139.0Y-86.5
X141.0Y-87.0
X142.5Y-87.0
X145.5Y-85.5
X148.221Y-50.0
X149.5Y-48.0
X150.35Y-50.15
X150.5Y-43.5
X151.0Y-58.5
X151.6Y-87.201
X152.0Y-52.92
X152.0Y-68.0
X152.05Y-54.19
X153.624Y-48.724
X154.26Y-82.3
X154.35Y-51.905
X154.4Y-47.4
X154.4Y-58.5
X155.0Y-48.6
X155.5Y-67.0
X155.6Y-47.4
X155.9Y-58.5
X155.9Y-62.5
X156.15Y-50.392
X156.291Y-73.291
X156.5Y-86.0
X156.976Y-82.476
X157.0Y-54.19
X157.0Y-90.5
X158.5Y-49.0
X158.602Y-58.5
X159.256Y-51.763
X159.5Y-48.0
X161.55Y-49.07
X161.55Y-54.15
X163.5Y-49.0
X163.5Y-58.0
X164.193Y-48.6
X164.853Y-72.976
X164.915Y-48.999
X166.5Y-45.26
X166.5Y-49.07
X166.5Y-50.34
X166.5Y-51.61
X169.0Y-51.6
X169.5Y-48.0
X169.5Y-78.0
X171.55Y-46.57
X171.55Y-49.11
X171.55Y-54.19
X173.0Y-73.0
X173.025Y-49.003
X174.0Y-49.0
X174.15Y-51.905
X174.2Y-74.0
X174.8Y-49.0
X175.4Y-56.25
X176.5Y-45.3
X176.5Y-50.38
X176.5Y-52.92
X176.5Y-54.19
X178.5Y-46.0
X180.5Y-48.0
X181.0Y-42.869
X181.805Y-46.555
X182.5Y-42.9
X182.5Y-49.19
X182.5Y-53.0
X184.65Y-49.405
X185.0Y-99.5
X185.5Y-45.5
X186.0Y-77.5
X186.0Y-84.0
X186.0Y-89.5
X186.5Y-71.5
X187.45Y-45.38
X187.45Y-51.73
X187.45Y-54.27
X188.7Y-61.31
X188.7Y-67.66
X188.7Y-68.93
X189.0Y-47.0
X189.0Y-60.0
X189.5Y-43.5
X189.6Y-49.0
X190.0Y-41.0
X190.0Y-76.0
X190.1Y-92.0
X190.2Y-50.5
X190.201Y-59.4
X191.0Y-83.5
X192.0Y-47.5
X192.0Y-65.0
X192.9Y-42.869
X192.988Y-67.001
X193.5Y-77.5
X193.588Y-53.5
X193.6Y-49.998
X194.476Y-88.039
X194.5Y-63.0
X194.5Y-65.0
X194.68Y-55.029
X195.066Y-63.6
X195.478Y-54.075
X195.5Y-52.5
X195.5Y-84.0
X195.934Y-48.434
X196.5Y-49.0
X196.5Y-51.5
X196.5Y-53.5
X197.0Y-86.926
X197.066Y-54.066
X198.0Y-61.31
X198.0Y-65.12
X198.0Y-66.39
X198.0Y-68.93
X198.45Y-47.502
X200.0Y-61.5
X200.1Y-87.0
X200.65Y-52.549
X201.0Y-59.0
X201.0Y-61.5
X201.0Y-81.926
X201.011Y-56.989
X201.278Y-53.055
X201.978Y-56.425
X202.338Y-61.162
X202.433Y-58.436
X202.5Y-41.669
X202.5Y-51.5
X203.0Y-55.5
X203.0Y-57.0
X203.011Y-58.989
X203.265Y-43.982
X204.7Y-52.401
X205.0Y-53.6
X205.0Y-54.9
X205.0Y-57.61
X205.0Y-59.1
X205.0Y-63.96
X205.842Y-56.4
X205.842Y-59.7
X205.95Y-98.926
X206.442Y-54.6
X206.761Y-45.5
X207.0Y-71.0
X207.258Y-54.6
X207.396Y-64.838
X207.534Y-42.335
X207.6Y-50.4
X207.969Y-65.945
X208.0Y-54.9
X208.099Y-42.901
X208.3Y-45.35
X209.048Y-93.548
X209.4Y-52.481
X209.5Y-46.5
X209.5Y-51.0
X209.6Y-56.193
X209.6Y-59.5
X209.6Y-60.999
X210.0Y-44.5
X210.0Y-55.5
X210.1Y-87.0
X210.4Y-59.1
X210.5Y-65.0
X210.5Y-67.0
X210.65Y-60.15
X210.801Y-57.0
X211.03Y-45.384
X211.5Y-69.0
X212.0Y-83.5
X212.001Y-57.0
X212.001Y-59.5
X212.515Y-52.472
X214.3Y-55.07
X214.3Y-66.5
X214.3Y-67.77
X214.3Y-69.04
X215.0Y-58.881
X215.1Y-82.0
X215.1Y-92.0
X215.5Y-52.5
X216.247Y-58.611
X216.724Y-67.5
X217.0Y-58.881
X217.324Y-68.5
X217.5Y-57.0
X217.5Y-61.421
X218.5Y-55.4
X218.5Y-61.0
X219.0Y-66.5
X219.5Y-68.5
X220.0Y-61.0
X221.0Y-62.4
X221.0Y-67.5
X221.0Y-98.126
X221.978Y-66.978
X222.992Y-57.008
X223.6Y-82.0
X223.6Y-92.0
X224.5Y-88.126
X225.216Y-56.8
X225.407Y-58.907
X225.5Y-79.0
X227.951Y-58.6
X228.5Y-57.4
X228.55Y-81.926
X228.6Y-77.0
X228.65Y-92.0
X229.376Y-88.624
X230.0Y-62.0
X230.5Y-94.0
X230.967Y-63.833
X231.5Y-68.0
X232.0Y-62.4
X233.251Y-59.0
X233.6Y-87.0
X233.6Y-92.0
X233.65Y-82.0
X235.0Y-83.5
X235.268Y-61.091
X236.0Y-58.0
X236.0Y-78.4
X238.0Y-79.0
X238.6Y-87.0
X241.0Y-78.0
X242.0Y-83.5
X243.5Y-92.0
X243.55Y-87.0
X248.55Y-87.0
X248.6Y-82.0
T2
X129.5Y-35.0
X129.5Y-36.0
X129.5Y-37.0
X129.5Y-38.0
X129.5Y-39.0
X129.5Y-40.0
X129.5Y-41.0
X129.5Y-42.0
X129.5Y-43.0
X129.5Y-44.0
X129.5Y-45.0
X129.5Y-46.0
X129.5Y-47.0
X129.5Y-48.0
X129.5Y-49.0
X129.5Y-50.0
X129.5Y-51.0
X129.5Y-52.0
X129.5Y-53.0
X129.5Y-54.0
X129.5Y-55.0
X129.5Y-56.0
X129.5Y-57.0
X129.5Y-58.0
X129.5Y-59.0
X129.5Y-60.0
X129.5Y-61.0
X129.5Y-62.0
X129.5Y-63.0
X129.5Y-64.0
X129.5Y-65.0
X129.5Y-66.0
X129.5Y-67.0
X129.5Y-68.0
X129.5Y-69.0
X129.5Y-70.0
X129.5Y-71.0
X129.5Y-72.0
X129.5Y-73.0
X129.5Y-74.0
X129.5Y-75.0
X129.5Y-76.0
X129.5Y-77.0
X129.5Y-78.0
X129.5Y-79.0
X129.5Y-80.0
X129.5Y-81.0
X129.5Y-82.0
X129.5Y-83.0
X129.5Y-84.0
X129.5Y-85.0
X129.5Y-86.0
X129.5Y-87.0
X129.5Y-88.0
X129.5Y-89.0
X129.5Y-90.0
X129.5Y-91.0
X129.5Y-92.0
X129.5Y-93.0
X129.5Y-94.0
X129.5Y-95.0
X129.5Y-96.0
X129.5Y-97.0
X129.5Y-98.0
X129.5Y-99.0
X129.5Y-100.0
X130.5Y-35.0
X130.5Y-36.0
X130.5Y-37.0
X130.5Y-38.0
X130.5Y-39.0
X130.5Y-40.0
X130.5Y-41.0
X130.5Y-42.0
X130.5Y-43.0
X130.5Y-44.0
X130.5Y-45.0
X130.5Y-46.0
X130.5Y-47.0
X130.5Y-48.0
X130.5Y-49.0
X130.5Y-50.0
X130.5Y-51.0
X130.5Y-55.0
X130.5Y-56.0
X130.5Y-57.0
X130.5Y-58.0
X130.5Y-88.0
X130.5Y-89.0
X130.5Y-94.0
X130.5Y-95.0
X130.5Y-96.0
X130.5Y-97.0
X130.5Y-98.0
X130.5Y-99.0
X130.5Y-100.0
X131.5Y-35.0
X131.5Y-36.0
X131.5Y-99.0
X131.5Y-100.0
X132.5Y-35.0
X132.5Y-36.0
X132.5Y-99.0
X132.5Y-100.0
X133.5Y-35.0
X133.5Y-36.0
X133.5Y-37.0
X133.5Y-38.0
X133.5Y-39.0
X133.5Y-40.0
X133.5Y-44.0
X133.5Y-45.0
X133.5Y-47.0
X133.5Y-50.0
X133.5Y-51.0
X133.5Y-52.0
X133.5Y-57.0
X133.5Y-58.0
X133.5Y-59.0
X133.5Y-60.0
X133.5Y-61.0
X133.5Y-62.0
X133.5Y-63.0
X133.5Y-64.0
X133.5Y-91.0
X133.5Y-96.0
X133.5Y-97.0
X133.5Y-98.0
X133.5Y-99.0
X133.5Y-100.0
X134.5Y-35.0
X134.5Y-36.0
X134.5Y-37.0
X134.5Y-38.0
X134.5Y-39.0
X134.5Y-40.0
X134.5Y-43.0
X134.5Y-57.0
X134.5Y-58.0
X134.5Y-59.0
X134.5Y-60.0
X134.5Y-61.0
X134.5Y-62.0
X134.5Y-63.0
X134.5Y-91.0
X134.5Y-92.0
X134.5Y-97.0
X134.5Y-98.0
X134.5Y-99.0
X134.5Y-100.0
X135.5Y-35.0
X135.5Y-36.0
X135.5Y-37.0
X135.5Y-38.0
X135.5Y-39.0
X135.5Y-40.0
X135.5Y-43.0
X135.5Y-57.0
X135.5Y-58.0
X135.5Y-59.0
X135.5Y-60.0
X135.5Y-61.0
X135.5Y-62.0
X135.5Y-91.0
X135.5Y-92.0
X135.5Y-93.0
X135.5Y-98.0
X135.5Y-99.0
X135.5Y-100.0
X136.5Y-35.0
X136.5Y-36.0
X136.5Y-37.0
X136.5Y-38.0
X136.5Y-39.0
X136.5Y-40.0
X136.5Y-43.0
X136.5Y-44.0
X136.5Y-45.0
X136.5Y-49.0
X136.5Y-50.0
X136.5Y-51.0
X136.5Y-57.0
X136.5Y-58.0
X136.5Y-59.0
X136.5Y-60.0
X136.5Y-61.0
X136.5Y-91.0
X136.5Y-92.0
X136.5Y-93.0
X136.5Y-94.0
X136.5Y-99.0
X136.5Y-100.0
X137.5Y-35.0
X137.5Y-36.0
X137.5Y-37.0
X137.5Y-43.0
X137.5Y-44.0
X137.5Y-45.0
X137.5Y-48.0
X137.5Y-49.0
X137.5Y-50.0
X137.5Y-55.0
X137.5Y-56.0
X137.5Y-57.0
X137.5Y-58.0
X137.5Y-59.0
X137.5Y-60.0
X137.5Y-91.0
X137.5Y-92.0
X137.5Y-93.0
X137.5Y-94.0
X137.5Y-99.0
X137.5Y-100.0
X138.5Y-35.0
X138.5Y-36.0
X138.5Y-37.0
X138.5Y-43.0
X138.5Y-44.0
X138.5Y-47.0
X138.5Y-48.0
X138.5Y-49.0
X138.5Y-54.0
X138.5Y-55.0
X138.5Y-56.0
X138.5Y-57.0
X138.5Y-58.0
X138.5Y-59.0
X138.5Y-91.0
X138.5Y-92.0
X138.5Y-93.0
X138.5Y-94.0
X138.5Y-99.0
X138.5Y-100.0
X139.5Y-35.0
X139.5Y-36.0
X139.5Y-37.0
X139.5Y-38.0
X139.5Y-39.0
X139.5Y-40.0
X139.5Y-43.0
X139.5Y-47.0
X139.5Y-48.0
X139.5Y-55.0
X139.5Y-56.0
X139.5Y-57.0
X139.5Y-58.0
X139.5Y-76.0
X139.5Y-91.0
X139.5Y-92.0
X139.5Y-93.0
X139.5Y-94.0
X139.5Y-99.0
X139.5Y-100.0
X140.5Y-35.0
X140.5Y-36.0
X140.5Y-37.0
X140.5Y-45.0
X140.5Y-47.0
X140.5Y-55.0
X140.5Y-56.0
X140.5Y-57.0
X140.5Y-76.0
X140.5Y-77.0
X140.5Y-91.0
X140.5Y-92.0
X140.5Y-93.0
X140.5Y-94.0
X140.5Y-99.0
X140.5Y-100.0
X141.5Y-35.0
X141.5Y-36.0
X141.5Y-37.0
X141.5Y-44.0
X141.5Y-55.0
X141.5Y-56.0
X141.5Y-76.0
X141.5Y-77.0
X141.5Y-78.0
X141.5Y-91.0
X141.5Y-92.0
X141.5Y-93.0
X141.5Y-94.0
X141.5Y-99.0
X141.5Y-100.0
X142.5Y-35.0
X142.5Y-36.0
X142.5Y-37.0
X142.5Y-38.0
X142.5Y-39.0
X142.5Y-40.0
X142.5Y-43.0
X142.5Y-50.0
X142.5Y-55.0
X142.5Y-76.0
X142.5Y-77.0
X142.5Y-78.0
X142.5Y-79.0
X142.5Y-91.0
X142.5Y-92.0
X142.5Y-93.0
X142.5Y-94.0
X142.5Y-99.0
X142.5Y-100.0
X143.5Y-35.0
X143.5Y-36.0
X143.5Y-37.0
X143.5Y-38.0
X143.5Y-39.0
X143.5Y-49.0
X143.5Y-50.0
X143.5Y-76.0
X143.5Y-77.0
X143.5Y-78.0
X143.5Y-79.0
X143.5Y-80.0
X143.5Y-91.0
X143.5Y-92.0
X143.5Y-93.0
X143.5Y-94.0
X143.5Y-99.0
X143.5Y-100.0
X144.5Y-35.0
X144.5Y-36.0
X144.5Y-37.0
X144.5Y-38.0
X144.5Y-39.0
X144.5Y-48.0
X144.5Y-49.0
X144.5Y-50.0
X144.5Y-76.0
X144.5Y-77.0
X144.5Y-78.0
X144.5Y-79.0
X144.5Y-80.0
X144.5Y-81.0
X144.5Y-92.0
X144.5Y-93.0
X144.5Y-94.0
X144.5Y-99.0
X144.5Y-100.0
X145.5Y-35.0
X145.5Y-36.0
X145.5Y-37.0
X145.5Y-38.0
X145.5Y-39.0
X145.5Y-49.0
X145.5Y-50.0
X145.5Y-76.0
X145.5Y-77.0
X145.5Y-78.0
X145.5Y-79.0
X145.5Y-80.0
X145.5Y-81.0
X145.5Y-82.0
X145.5Y-93.0
X145.5Y-94.0
X145.5Y-99.0
X145.5Y-100.0
X146.5Y-35.0
X146.5Y-36.0
X146.5Y-99.0
X146.5Y-100.0
X147.5Y-35.0
X147.5Y-36.0
X147.5Y-99.0
X147.5Y-100.0
X148.5Y-35.0
X148.5Y-36.0
X148.5Y-37.0
X148.5Y-38.0
X148.5Y-39.0
X148.5Y-73.0
X148.5Y-76.0
X148.5Y-77.0
X148.5Y-78.0
X148.5Y-79.0
X148.5Y-80.0
X148.5Y-81.0
X148.5Y-82.0
X148.5Y-83.0
X148.5Y-94.0
X148.5Y-99.0
X148.5Y-100.0
X149.5Y-35.0
X149.5Y-36.0
X149.5Y-37.0
X149.5Y-38.0
X149.5Y-39.0
X149.5Y-57.0
X149.5Y-58.0
X149.5Y-59.0
X149.5Y-60.0
X149.5Y-61.0
X149.5Y-62.0
X149.5Y-72.0
X149.5Y-75.0
X149.5Y-76.0
X149.5Y-77.0
X149.5Y-78.0
X149.5Y-79.0
X149.5Y-80.0
X149.5Y-81.0
X149.5Y-82.0
X149.5Y-94.0
X149.5Y-99.0
X149.5Y-100.0
X150.5Y-35.0
X150.5Y-36.0
X150.5Y-37.0
X150.5Y-38.0
X150.5Y-39.0
X150.5Y-54.0
X150.5Y-99.0
X150.5Y-100.0
X151.5Y-35.0
X151.5Y-36.0
X151.5Y-37.0
X151.5Y-38.0
X151.5Y-39.0
X151.5Y-99.0
X151.5Y-100.0
X152.5Y-35.0
X152.5Y-36.0
X152.5Y-37.0
X152.5Y-38.0
X152.5Y-39.0
X152.5Y-56.0
X152.5Y-99.0
X152.5Y-100.0
X153.5Y-35.0
X153.5Y-36.0
X153.5Y-37.0
X153.5Y-38.0
X153.5Y-39.0
X153.5Y-68.0
X153.5Y-99.0
X153.5Y-100.0
X154.5Y-35.0
X154.5Y-36.0
X154.5Y-37.0
X154.5Y-38.0
X154.5Y-39.0
X154.5Y-68.0
X154.5Y-99.0
X154.5Y-100.0
X155.5Y-35.0
X155.5Y-36.0
X155.5Y-37.0
X155.5Y-38.0
X155.5Y-39.0
X155.5Y-77.0
X155.5Y-99.0
X155.5Y-100.0
X156.5Y-35.0
X156.5Y-36.0
X156.5Y-37.0
X156.5Y-38.0
X156.5Y-39.0
X156.5Y-76.0
X156.5Y-77.0
X156.5Y-95.0
X156.5Y-96.0
X156.5Y-99.0
X156.5Y-100.0
X157.5Y-35.0
X157.5Y-36.0
X157.5Y-37.0
X157.5Y-38.0
X157.5Y-39.0
X157.5Y-95.0
X157.5Y-96.0
X157.5Y-99.0
X157.5Y-100.0
X158.5Y-35.0
X158.5Y-36.0
X158.5Y-37.0
X158.5Y-38.0
X158.5Y-39.0
X158.5Y-90.0
X158.5Y-95.0
X158.5Y-96.0
X158.5Y-99.0
X158.5Y-100.0
X159.5Y-35.0
X159.5Y-36.0
X159.5Y-37.0
X159.5Y-38.0
X159.5Y-39.0
X159.5Y-99.0
X159.5Y-100.0
X160.5Y-35.0
X160.5Y-36.0
X160.5Y-37.0
X160.5Y-38.0
X160.5Y-39.0
X160.5Y-68.0
X160.5Y-73.0
X160.5Y-77.0
X160.5Y-99.0
X160.5Y-100.0
X161.5Y-35.0
X161.5Y-36.0
X161.5Y-37.0
X161.5Y-38.0
X161.5Y-39.0
X161.5Y-68.0
X161.5Y-99.0
X161.5Y-100.0
X162.5Y-35.0
X162.5Y-36.0
X162.5Y-37.0
X162.5Y-38.0
X162.5Y-39.0
X162.5Y-56.0
X162.5Y-57.0
X162.5Y-99.0
X162.5Y-100.0
X163.5Y-35.0
X163.5Y-36.0
X163.5Y-37.0
X163.5Y-38.0
X163.5Y-39.0
X163.5Y-55.0
X163.5Y-56.0
X163.5Y-57.0
X163.5Y-99.0
X163.5Y-100.0
X164.5Y-35.0
X164.5Y-36.0
X164.5Y-37.0
X164.5Y-38.0
X164.5Y-39.0
X164.5Y-77.0
X164.5Y-99.0
X164.5Y-100.0
X165.5Y-35.0
X165.5Y-36.0
X165.5Y-37.0
X165.5Y-38.0
X165.5Y-39.0
X165.5Y-80.0
X165.5Y-81.0
X165.5Y-83.0
X165.5Y-85.0
X165.5Y-99.0
X165.5Y-100.0
X166.5Y-35.0
X166.5Y-36.0
X166.5Y-37.0
X166.5Y-38.0
X166.5Y-39.0
X166.5Y-99.0
X166.5Y-100.0
X167.5Y-35.0
X167.5Y-36.0
X167.5Y-37.0
X167.5Y-38.0
X167.5Y-39.0
X167.5Y-99.0
X167.5Y-100.0
X168.5Y-35.0
X168.5Y-36.0
X168.5Y-37.0
X168.5Y-38.0
X168.5Y-39.0
X168.5Y-46.0
X168.5Y-47.0
X168.5Y-99.0
X168.5Y-100.0
X169.5Y-35.0
X169.5Y-36.0
X169.5Y-37.0
X169.5Y-38.0
X169.5Y-39.0
X169.5Y-46.0
X169.5Y-47.0
X169.5Y-49.0
X169.5Y-55.0
X169.5Y-56.0
X169.5Y-57.0
X169.5Y-99.0
X169.5Y-100.0
X170.5Y-35.0
X170.5Y-36.0
X170.5Y-37.0
X170.5Y-38.0
X170.5Y-39.0
X170.5Y-99.0
X170.5Y-100.0
X171.5Y-35.0
X171.5Y-36.0
X171.5Y-37.0
X171.5Y-38.0
X171.5Y-39.0
X171.5Y-99.0
X171.5Y-100.0
X172.5Y-35.0
X172.5Y-36.0
X172.5Y-37.0
X172.5Y-38.0
X172.5Y-39.0
X172.5Y-99.0
X172.5Y-100.0
X173.5Y-35.0
X173.5Y-36.0
X173.5Y-37.0
X173.5Y-38.0
X173.5Y-39.0
X173.5Y-46.0
X173.5Y-47.0
X173.5Y-95.0
X173.5Y-96.0
X173.5Y-99.0
X173.5Y-100.0
X174.5Y-35.0
X174.5Y-36.0
X174.5Y-37.0
X174.5Y-38.0
X174.5Y-39.0
X174.5Y-46.0
X174.5Y-95.0
X174.5Y-96.0
X174.5Y-99.0
X174.5Y-100.0
X175.5Y-35.0
X175.5Y-36.0
X175.5Y-37.0
X175.5Y-38.0
X175.5Y-39.0
X175.5Y-95.0
X175.5Y-96.0
X175.5Y-99.0
X175.5Y-100.0
X176.5Y-35.0
X176.5Y-36.0
X176.5Y-37.0
X176.5Y-38.0
X176.5Y-39.0
X176.5Y-95.0
X176.5Y-96.0
X176.5Y-99.0
X176.5Y-100.0
X177.5Y-35.0
X177.5Y-36.0
X177.5Y-37.0
X177.5Y-38.0
X177.5Y-39.0
X177.5Y-57.0
X177.5Y-62.0
X177.5Y-63.0
X177.5Y-67.0
X177.5Y-73.0
X177.5Y-83.0
X177.5Y-87.0
X177.5Y-99.0
X177.5Y-100.0
X178.5Y-35.0
X178.5Y-36.0
X178.5Y-37.0
X178.5Y-38.0
X178.5Y-39.0
X178.5Y-52.0
X178.5Y-57.0
X178.5Y-63.0
X178.5Y-73.0
X178.5Y-83.0
X178.5Y-99.0
X178.5Y-100.0
X179.5Y-35.0
X179.5Y-36.0
X179.5Y-37.0
X179.5Y-38.0
X179.5Y-39.0
X179.5Y-52.0
X179.5Y-57.0
X179.5Y-63.0
X179.5Y-73.0
X179.5Y-83.0
X179.5Y-99.0
X179.5Y-100.0
X180.5Y-35.0
X180.5Y-36.0
X180.5Y-37.0
X180.5Y-38.0
X180.5Y-39.0
X180.5Y-47.0
X180.5Y-57.0
X180.5Y-63.0
X180.5Y-73.0
X180.5Y-83.0
X180.5Y-99.0
X180.5Y-100.0
X181.5Y-35.0
X181.5Y-36.0
X181.5Y-37.0
X181.5Y-38.0
X181.5Y-39.0
X181.5Y-62.0
X181.5Y-63.0
X181.5Y-67.0
X181.5Y-87.0
X181.5Y-99.0
X181.5Y-100.0
X182.5Y-35.0
X182.5Y-36.0
X182.5Y-37.0
X182.5Y-38.0
X182.5Y-39.0
X182.5Y-80.0
X182.5Y-81.0
X182.5Y-85.0
X182.5Y-86.0
X182.5Y-87.0
X182.5Y-99.0
X182.5Y-100.0
X183.5Y-35.0
X183.5Y-36.0
X183.5Y-37.0
X183.5Y-38.0
X183.5Y-39.0
X183.5Y-70.0
X183.5Y-71.0
X183.5Y-72.0
X183.5Y-75.0
X183.5Y-76.0
X183.5Y-77.0
X183.5Y-79.0
X183.5Y-80.0
X183.5Y-84.0
X183.5Y-85.0
X183.5Y-86.0
X183.5Y-99.0
X183.5Y-100.0
X184.5Y-35.0
X184.5Y-36.0
X184.5Y-37.0
X184.5Y-38.0
X184.5Y-39.0
X185.5Y-35.0
X185.5Y-36.0
X185.5Y-37.0
X185.5Y-38.0
X185.5Y-39.0
X186.5Y-35.0
X186.5Y-36.0
X186.5Y-37.0
X186.5Y-38.0
X186.5Y-39.0
X186.5Y-41.0
X186.5Y-61.0
X186.5Y-62.0
X186.5Y-63.0
X186.5Y-64.0
X186.5Y-65.0
X186.5Y-66.0
X186.5Y-67.0
X186.5Y-69.0
X186.5Y-70.0
X186.5Y-73.0
X186.5Y-75.0
X186.5Y-81.0
X186.5Y-83.0
X186.5Y-85.0
X186.5Y-86.0
X186.5Y-87.0
X186.5Y-88.0
X186.5Y-99.0
X186.5Y-100.0
X187.5Y-35.0
X187.5Y-36.0
X187.5Y-37.0
X187.5Y-38.0
X187.5Y-39.0
X187.5Y-41.0
X187.5Y-70.0
X187.5Y-73.0
X187.5Y-75.0
X187.5Y-76.0
X187.5Y-83.0
X187.5Y-99.0
X187.5Y-100.0
X188.5Y-35.0
X188.5Y-36.0
X188.5Y-37.0
X188.5Y-38.0
X188.5Y-39.0
X188.5Y-41.0
X188.5Y-70.0
X188.5Y-73.0
X188.5Y-75.0
X188.5Y-76.0
X188.5Y-83.0
X188.5Y-99.0
X188.5Y-100.0
X189.5Y-35.0
X189.5Y-36.0
X189.5Y-37.0
X189.5Y-38.0
X189.5Y-39.0
X189.5Y-54.0
X189.5Y-70.0
X189.5Y-73.0
X189.5Y-75.0
X189.5Y-99.0
X189.5Y-100.0
X190.5Y-35.0
X190.5Y-36.0
X190.5Y-37.0
X190.5Y-38.0
X190.5Y-39.0
X190.5Y-40.0
X190.5Y-69.0
X190.5Y-70.0
X190.5Y-73.0
X190.5Y-75.0
X190.5Y-99.0
X190.5Y-100.0
X191.5Y-35.0
X191.5Y-36.0
X191.5Y-37.0
X191.5Y-38.0
X191.5Y-39.0
X191.5Y-40.0
X191.5Y-41.0
X191.5Y-69.0
X191.5Y-70.0
X191.5Y-73.0
X191.5Y-75.0
X191.5Y-76.0
X191.5Y-99.0
X191.5Y-100.0
X192.5Y-35.0
X192.5Y-36.0
X192.5Y-37.0
X192.5Y-38.0
X192.5Y-39.0
X192.5Y-40.0
X192.5Y-41.0
X192.5Y-69.0
X192.5Y-70.0
X192.5Y-73.0
X192.5Y-75.0
X192.5Y-76.0
X192.5Y-99.0
X192.5Y-100.0
X193.5Y-35.0
X193.5Y-36.0
X193.5Y-37.0
X193.5Y-38.0
X193.5Y-39.0
X193.5Y-40.0
X193.5Y-69.0
X193.5Y-70.0
X193.5Y-73.0
X193.5Y-75.0
X193.5Y-76.0
X193.5Y-99.0
X193.5Y-100.0
X194.5Y-35.0
X194.5Y-36.0
X194.5Y-43.0
X194.5Y-69.0
X194.5Y-70.0
X194.5Y-73.0
X194.5Y-75.0
X194.5Y-76.0
X194.5Y-77.0
X194.5Y-99.0
X194.5Y-100.0
X195.5Y-35.0
X195.5Y-36.0
X195.5Y-69.0
X195.5Y-70.0
X195.5Y-73.0
X195.5Y-75.0
X195.5Y-76.0
X195.5Y-77.0
X195.5Y-78.0
X195.5Y-99.0
X195.5Y-100.0
X196.5Y-35.0
X196.5Y-36.0
X196.5Y-41.0
X196.5Y-70.0
X196.5Y-73.0
X196.5Y-75.0
X196.5Y-76.0
X196.5Y-77.0
X196.5Y-78.0
X196.5Y-100.0
X197.5Y-35.0
X197.5Y-36.0
X197.5Y-41.0
X197.5Y-70.0
X197.5Y-73.0
X197.5Y-75.0
X197.5Y-76.0
X197.5Y-77.0
X197.5Y-78.0
X198.5Y-35.0
X198.5Y-36.0
X198.5Y-41.0
X198.5Y-43.0
X198.5Y-44.0
X198.5Y-45.0
X198.5Y-73.0
X198.5Y-75.0
X198.5Y-76.0
X198.5Y-77.0
X198.5Y-78.0
X199.5Y-35.0
X199.5Y-36.0
X199.5Y-37.0
X199.5Y-41.0
X199.5Y-44.0
X199.5Y-45.0
X199.5Y-46.0
X199.5Y-75.0
X199.5Y-76.0
X199.5Y-77.0
X199.5Y-78.0
X200.5Y-35.0
X200.5Y-36.0
X200.5Y-37.0
X200.5Y-38.0
X200.5Y-72.0
X200.5Y-75.0
X200.5Y-76.0
X200.5Y-77.0
X200.5Y-78.0
X201.5Y-35.0
X201.5Y-36.0
X201.5Y-37.0
X201.5Y-38.0
X201.5Y-39.0
X201.5Y-72.0
X201.5Y-73.0
X201.5Y-76.0
X201.5Y-77.0
X201.5Y-78.0
X202.5Y-35.0
X202.5Y-36.0
X202.5Y-37.0
X202.5Y-38.0
X202.5Y-39.0
X202.5Y-40.0
X202.5Y-73.0
X202.5Y-77.0
X202.5Y-78.0
X203.5Y-35.0
X203.5Y-36.0
X203.5Y-37.0
X203.5Y-38.0
X203.5Y-39.0
X203.5Y-40.0
X203.5Y-75.0
X203.5Y-78.0
X204.5Y-35.0
X204.5Y-36.0
X204.5Y-37.0
X204.5Y-38.0
X204.5Y-39.0
X204.5Y-40.0
X204.5Y-41.0
X204.5Y-75.0
X204.5Y-76.0
X205.5Y-35.0
X205.5Y-36.0
X205.5Y-37.0
X205.5Y-38.0
X205.5Y-39.0
X205.5Y-40.0
X205.5Y-41.0
X205.5Y-76.0
X205.5Y-77.0
X206.5Y-35.0
X206.5Y-36.0
X206.5Y-37.0
X206.5Y-38.0
X206.5Y-39.0
X206.5Y-40.0
X206.5Y-70.0
X206.5Y-73.0
X206.5Y-77.0
X206.5Y-78.0
X207.5Y-35.0
X207.5Y-36.0
X207.5Y-37.0
X207.5Y-38.0
X207.5Y-39.0
X207.5Y-40.0
X207.5Y-73.0
X207.5Y-78.0
X208.5Y-35.0
X208.5Y-36.0
X208.5Y-37.0
X208.5Y-38.0
X208.5Y-39.0
X208.5Y-40.0
X208.5Y-73.0
X208.5Y-75.0
X208.5Y-100.0
X209.5Y-35.0
X209.5Y-36.0
X209.5Y-37.0
X209.5Y-38.0
X209.5Y-39.0
X209.5Y-40.0
X209.5Y-73.0
X209.5Y-75.0
X209.5Y-76.0
X209.5Y-100.0
X210.5Y-35.0
X210.5Y-36.0
X210.5Y-37.0
X210.5Y-38.0
X210.5Y-39.0
X210.5Y-40.0
X210.5Y-73.0
X210.5Y-75.0
X210.5Y-76.0
X210.5Y-77.0
X210.5Y-100.0
X211.5Y-35.0
X211.5Y-36.0
X211.5Y-37.0
X211.5Y-38.0
X211.5Y-39.0
X211.5Y-40.0
X211.5Y-73.0
X211.5Y-75.0
X211.5Y-76.0
X211.5Y-77.0
X211.5Y-78.0
X211.5Y-100.0
X212.5Y-35.0
X212.5Y-36.0
X212.5Y-37.0
X212.5Y-38.0
X212.5Y-39.0
X212.5Y-40.0
X212.5Y-47.0
X212.5Y-48.0
X212.5Y-49.0
X212.5Y-50.0
X212.5Y-51.0
X212.5Y-73.0
X212.5Y-75.0
X212.5Y-76.0
X212.5Y-77.0
X212.5Y-78.0
X212.5Y-100.0
X213.5Y-35.0
X213.5Y-36.0
X213.5Y-37.0
X213.5Y-38.0
X213.5Y-39.0
X213.5Y-40.0
X213.5Y-73.0
X213.5Y-75.0
X213.5Y-76.0
X213.5Y-77.0
X213.5Y-78.0
X213.5Y-100.0
X214.5Y-35.0
X214.5Y-36.0
X214.5Y-37.0
X214.5Y-38.0
X214.5Y-39.0
X214.5Y-40.0
X214.5Y-73.0
X214.5Y-75.0
X214.5Y-76.0
X214.5Y-77.0
X214.5Y-78.0
X214.5Y-100.0
X215.5Y-35.0
X215.5Y-36.0
X215.5Y-37.0
X215.5Y-38.0
X215.5Y-39.0
X215.5Y-40.0
X215.5Y-44.0
X215.5Y-45.0
X215.5Y-46.0
X215.5Y-47.0
X215.5Y-48.0
X215.5Y-49.0
X215.5Y-73.0
X215.5Y-75.0
X215.5Y-76.0
X215.5Y-77.0
X215.5Y-78.0
X215.5Y-100.0
X216.5Y-35.0
X216.5Y-36.0
X216.5Y-37.0
X216.5Y-38.0
X216.5Y-39.0
X216.5Y-40.0
X216.5Y-44.0
X216.5Y-45.0
X216.5Y-46.0
X216.5Y-47.0
X216.5Y-48.0
X216.5Y-52.0
X216.5Y-73.0
X216.5Y-75.0
X216.5Y-76.0
X216.5Y-77.0
X216.5Y-78.0
X216.5Y-100.0
X217.5Y-35.0
X217.5Y-36.0
X217.5Y-37.0
X217.5Y-38.0
X217.5Y-39.0
X217.5Y-40.0
X217.5Y-44.0
X217.5Y-45.0
X217.5Y-46.0
X217.5Y-47.0
X217.5Y-51.0
X217.5Y-52.0
X217.5Y-73.0
X217.5Y-75.0
X217.5Y-76.0
X217.5Y-77.0
X217.5Y-78.0
X217.5Y-100.0
X218.5Y-35.0
X218.5Y-36.0
X218.5Y-37.0
X218.5Y-38.0
X218.5Y-39.0
X218.5Y-40.0
X218.5Y-44.0
X218.5Y-45.0
X218.5Y-46.0
X218.5Y-47.0
X218.5Y-50.0
X218.5Y-51.0
X218.5Y-52.0
X218.5Y-73.0
X218.5Y-75.0
X218.5Y-76.0
X218.5Y-77.0
X218.5Y-78.0
X218.5Y-100.0
X219.5Y-35.0
X219.5Y-36.0
X219.5Y-37.0
X219.5Y-38.0
X219.5Y-39.0
X219.5Y-40.0
X219.5Y-44.0
X219.5Y-45.0
X219.5Y-46.0
X219.5Y-47.0
X219.5Y-50.0
X219.5Y-51.0
X219.5Y-52.0
X219.5Y-75.0
X219.5Y-76.0
X219.5Y-77.0
X219.5Y-78.0
X219.5Y-100.0
X220.5Y-35.0
X220.5Y-36.0
X220.5Y-37.0
X220.5Y-38.0
X220.5Y-39.0
X220.5Y-40.0
X220.5Y-77.0
X220.5Y-100.0
X221.5Y-35.0
X221.5Y-36.0
X221.5Y-37.0
X221.5Y-38.0
X221.5Y-39.0
X221.5Y-40.0
X221.5Y-100.0
X222.5Y-35.0
X222.5Y-36.0
X222.5Y-37.0
X222.5Y-38.0
X222.5Y-39.0
X222.5Y-40.0
X222.5Y-100.0
X223.5Y-35.0
X223.5Y-36.0
X223.5Y-37.0
X223.5Y-38.0
X223.5Y-39.0
X223.5Y-40.0
X223.5Y-48.0
X223.5Y-53.0
X223.5Y-78.0
X223.5Y-100.0
X224.5Y-35.0
X224.5Y-36.0
X224.5Y-37.0
X224.5Y-38.0
X224.5Y-39.0
X224.5Y-40.0
X224.5Y-48.0
X224.5Y-53.0
X224.5Y-78.0
X224.5Y-100.0
X225.5Y-35.0
X225.5Y-36.0
X225.5Y-37.0
X225.5Y-38.0
X225.5Y-39.0
X225.5Y-40.0
X225.5Y-46.0
X225.5Y-47.0
X225.5Y-48.0
X225.5Y-49.0
X225.5Y-50.0
X225.5Y-51.0
X225.5Y-52.0
X225.5Y-53.0
X225.5Y-100.0
X226.5Y-35.0
X226.5Y-36.0
X226.5Y-37.0
X226.5Y-38.0
X226.5Y-39.0
X226.5Y-40.0
X226.5Y-47.0
X226.5Y-48.0
X226.5Y-49.0
X226.5Y-50.0
X226.5Y-100.0
X227.5Y-35.0
X227.5Y-36.0
X227.5Y-37.0
X227.5Y-38.0
X227.5Y-39.0
X227.5Y-40.0
X227.5Y-44.0
X227.5Y-48.0
X227.5Y-49.0
X227.5Y-50.0
X227.5Y-100.0
X228.5Y-35.0
X228.5Y-36.0
X228.5Y-37.0
X228.5Y-38.0
X228.5Y-39.0
X228.5Y-40.0
X228.5Y-100.0
X229.5Y-35.0
X229.5Y-36.0
X229.5Y-37.0
X229.5Y-38.0
X229.5Y-39.0
X229.5Y-40.0
X229.5Y-77.0
X229.5Y-78.0
X229.5Y-100.0
X230.5Y-35.0
X230.5Y-36.0
X230.5Y-37.0
X230.5Y-38.0
X230.5Y-39.0
X230.5Y-40.0
X230.5Y-77.0
X230.5Y-78.0
X230.5Y-100.0
X231.5Y-35.0
X231.5Y-36.0
X231.5Y-37.0
X231.5Y-38.0
X231.5Y-39.0
X231.5Y-40.0
X231.5Y-43.0
X231.5Y-48.0
X231.5Y-53.0
X231.5Y-100.0
X232.5Y-35.0
X232.5Y-36.0
X232.5Y-37.0
X232.5Y-38.0
X232.5Y-39.0
X232.5Y-40.0
X232.5Y-48.0
X232.5Y-53.0
X232.5Y-100.0
X233.5Y-35.0
X233.5Y-36.0
X233.5Y-37.0
X233.5Y-38.0
X233.5Y-39.0
X233.5Y-40.0
X233.5Y-48.0
X233.5Y-53.0
X233.5Y-100.0
X234.5Y-35.0
X234.5Y-36.0
X234.5Y-37.0
X234.5Y-38.0
X234.5Y-39.0
X234.5Y-40.0
X234.5Y-46.0
X234.5Y-47.0
X234.5Y-48.0
X234.5Y-49.0
X234.5Y-50.0
X234.5Y-51.0
X234.5Y-52.0
X234.5Y-53.0
X234.5Y-100.0
X235.5Y-35.0
X235.5Y-36.0
X235.5Y-37.0
X235.5Y-38.0
X235.5Y-39.0
X235.5Y-40.0
X235.5Y-43.0
X235.5Y-47.0
X235.5Y-48.0
X235.5Y-49.0
X235.5Y-50.0
X235.5Y-51.0
X235.5Y-52.0
X235.5Y-53.0
X235.5Y-77.0
X235.5Y-100.0
X236.5Y-35.0
X236.5Y-36.0
X236.5Y-37.0
X236.5Y-38.0
X236.5Y-39.0
X236.5Y-40.0
X236.5Y-43.0
X236.5Y-44.0
X236.5Y-48.0
X236.5Y-49.0
X236.5Y-50.0
X236.5Y-51.0
X236.5Y-52.0
X236.5Y-53.0
X236.5Y-100.0
X237.5Y-35.0
X237.5Y-36.0
X237.5Y-37.0
X237.5Y-38.0
X237.5Y-39.0
X237.5Y-40.0
X237.5Y-53.0
X237.5Y-99.0
X237.5Y-100.0
X238.5Y-35.0
X238.5Y-36.0
X238.5Y-37.0
X238.5Y-38.0
X238.5Y-39.0
X238.5Y-40.0
X238.5Y-53.0
X238.5Y-98.0
X238.5Y-99.0
X238.5Y-100.0
X239.5Y-35.0
X239.5Y-36.0
X239.5Y-37.0
X239.5Y-38.0
X239.5Y-39.0
X239.5Y-40.0
X239.5Y-53.0
X239.5Y-58.0
X239.5Y-68.0
X239.5Y-98.0
X239.5Y-99.0
X239.5Y-100.0
X240.5Y-35.0
X240.5Y-36.0
X240.5Y-37.0
X240.5Y-38.0
X240.5Y-39.0
X240.5Y-40.0
X240.5Y-43.0
X240.5Y-48.0
X240.5Y-53.0
X240.5Y-68.0
X240.5Y-98.0
X240.5Y-99.0
X240.5Y-100.0
X241.5Y-35.0
X241.5Y-36.0
X241.5Y-37.0
X241.5Y-38.0
X241.5Y-39.0
X241.5Y-40.0
X241.5Y-43.0
X241.5Y-48.0
X241.5Y-53.0
X241.5Y-68.0
X241.5Y-98.0
X241.5Y-99.0
X241.5Y-100.0
X242.5Y-35.0
X242.5Y-36.0
X242.5Y-37.0
X242.5Y-38.0
X242.5Y-39.0
X242.5Y-40.0
X242.5Y-43.0
X242.5Y-44.0
X242.5Y-45.0
X242.5Y-46.0
X242.5Y-47.0
X242.5Y-48.0
X242.5Y-49.0
X242.5Y-50.0
X242.5Y-51.0
X242.5Y-52.0
X242.5Y-53.0
X242.5Y-57.0
X242.5Y-68.0
X242.5Y-98.0
X242.5Y-99.0
X242.5Y-100.0
X243.5Y-35.0
X243.5Y-36.0
X243.5Y-37.0
X243.5Y-38.0
X243.5Y-39.0
X243.5Y-40.0
X243.5Y-43.0
X243.5Y-44.0
X243.5Y-45.0
X243.5Y-46.0
X243.5Y-47.0
X243.5Y-48.0
X243.5Y-49.0
X243.5Y-50.0
X243.5Y-51.0
X243.5Y-52.0
X243.5Y-53.0
X243.5Y-57.0
X243.5Y-58.0
X243.5Y-67.0
X243.5Y-68.0
X243.5Y-99.0
X243.5Y-100.0
X244.5Y-35.0
X244.5Y-36.0
X244.5Y-37.0
X244.5Y-38.0
X244.5Y-39.0
X244.5Y-40.0
X244.5Y-43.0
X244.5Y-44.0
X244.5Y-45.0
X244.5Y-46.0
X244.5Y-47.0
X244.5Y-48.0
X244.5Y-49.0
X244.5Y-50.0
X244.5Y-51.0
X244.5Y-52.0
X244.5Y-53.0
X244.5Y-58.0
X244.5Y-63.0
X244.5Y-67.0
X244.5Y-68.0
X244.5Y-77.0
X244.5Y-99.0
X244.5Y-100.0
X245.5Y-35.0
X245.5Y-36.0
X245.5Y-37.0
X245.5Y-38.0
X245.5Y-39.0
X245.5Y-40.0
X245.5Y-43.0
X245.5Y-44.0
X245.5Y-45.0
X245.5Y-46.0
X245.5Y-47.0
X245.5Y-48.0
X245.5Y-49.0
X245.5Y-50.0
X245.5Y-51.0
X245.5Y-52.0
X245.5Y-53.0
X245.5Y-63.0
X245.5Y-67.0
X245.5Y-68.0
X245.5Y-77.0
X245.5Y-82.0
X245.5Y-99.0
X245.5Y-100.0
X246.5Y-35.0
X246.5Y-36.0
X246.5Y-37.0
X246.5Y-38.0
X246.5Y-39.0
X246.5Y-40.0
X246.5Y-48.0
X246.5Y-53.0
X246.5Y-62.0
X246.5Y-63.0
X246.5Y-67.0
X246.5Y-68.0
X246.5Y-88.0
X246.5Y-99.0
X246.5Y-100.0
X247.5Y-35.0
X247.5Y-36.0
X247.5Y-37.0
X247.5Y-38.0
X247.5Y-39.0
X247.5Y-40.0
X247.5Y-48.0
X247.5Y-53.0
X247.5Y-57.0
X247.5Y-58.0
X247.5Y-62.0
X247.5Y-63.0
X247.5Y-67.0
X247.5Y-68.0
X247.5Y-99.0
X247.5Y-100.0
X248.5Y-35.0
X248.5Y-36.0
X248.5Y-37.0
X248.5Y-38.0
X248.5Y-39.0
X248.5Y-40.0
X248.5Y-41.0
X248.5Y-48.0
X248.5Y-53.0
X248.5Y-57.0
X248.5Y-58.0
X248.5Y-62.0
X248.5Y-63.0
X248.5Y-67.0
X248.5Y-68.0
X248.5Y-73.0
X248.5Y-88.0
X248.5Y-99.0
X248.5Y-100.0
X249.5Y-35.0
X249.5Y-36.0
X249.5Y-37.0
X249.5Y-38.0
X249.5Y-39.0
X249.5Y-40.0
X249.5Y-41.0
X249.5Y-42.0
X249.5Y-48.0
X249.5Y-53.0
X249.5Y-57.0
X249.5Y-58.0
X249.5Y-62.0
X249.5Y-63.0
X249.5Y-67.0
X249.5Y-68.0
X249.5Y-72.0
X249.5Y-73.0
X249.5Y-77.0
X249.5Y-88.0
X249.5Y-99.0
X249.5Y-100.0
X250.5Y-35.0
X250.5Y-36.0
X250.5Y-37.0
X250.5Y-38.0
X250.5Y-39.0
X250.5Y-40.0
X250.5Y-41.0
X250.5Y-42.0
X250.5Y-43.0
X250.5Y-53.0
X250.5Y-54.0
X250.5Y-55.0
X250.5Y-56.0
X250.5Y-57.0
X250.5Y-58.0
X250.5Y-59.0
X250.5Y-60.0
X250.5Y-61.0
X250.5Y-62.0
X250.5Y-63.0
X250.5Y-64.0
X250.5Y-65.0
X250.5Y-66.0
X250.5Y-67.0
X250.5Y-68.0
X250.5Y-69.0
X250.5Y-70.0
X250.5Y-71.0
X250.5Y-72.0
X250.5Y-73.0
X250.5Y-74.0
X250.5Y-75.0
X250.5Y-76.0
X250.5Y-77.0
X250.5Y-78.0
X250.5Y-88.0
X250.5Y-89.0
X250.5Y-90.0
X250.5Y-91.0
X250.5Y-92.0
X250.5Y-98.0
X250.5Y-99.0
X250.5Y-100.0
X251.5Y-35.0
X251.5Y-36.0
X251.5Y-37.0
X251.5Y-38.0
X251.5Y-39.0
X251.5Y-40.0
X251.5Y-41.0
X251.5Y-42.0
X251.5Y-43.0
X251.5Y-44.0
X251.5Y-45.0
X251.5Y-46.0
X251.5Y-47.0
X251.5Y-48.0
X251.5Y-49.0
X251.5Y-50.0
X251.5Y-51.0
X251.5Y-52.0
X251.5Y-53.0
X251.5Y-54.0
X251.5Y-55.0
X251.5Y-56.0
X251.5Y-57.0
X251.5Y-58.0
X251.5Y-59.0
X251.5Y-60.0
X251.5Y-61.0
X251.5Y-62.0
X251.5Y-63.0
X251.5Y-64.0
X251.5Y-65.0
X251.5Y-66.0
X251.5Y-67.0
X251.5Y-68.0
X251.5Y-69.0
X251.5Y-70.0
X251.5Y-71.0
X251.5Y-72.0
X251.5Y-73.0
X251.5Y-74.0
X251.5Y-75.0
X251.5Y-76.0
X251.5Y-77.0
X251.5Y-78.0
X251.5Y-79.0
X251.5Y-80.0
X251.5Y-81.0
X251.5Y-82.0
X251.5Y-83.0
X251.5Y-84.0
X251.5Y-85.0
X251.5Y-86.0
X251.5Y-87.0
X251.5Y-88.0
X251.5Y-89.0
X251.5Y-90.0
X251.5Y-91.0
X251.5Y-92.0
X251.5Y-93.0
X251.5Y-94.0
X251.5Y-95.0
X251.5Y-96.0
X251.5Y-97.0
X251.5Y-98.0
X251.5Y-99.0
X251.5Y-100.0
X252.5Y-35.0
X252.5Y-36.0
X252.5Y-37.0
X252.5Y-38.0
X252.5Y-39.0
X252.5Y-40.0
X252.5Y-41.0
X252.5Y-42.0
X252.5Y-43.0
X252.5Y-44.0
X252.5Y-45.0
X252.5Y-46.0
X252.5Y-47.0
X252.5Y-48.0
X252.5Y-49.0
X252.5Y-50.0
X252.5Y-51.0
X252.5Y-52.0
X252.5Y-53.0
X252.5Y-54.0
X252.5Y-55.0
X252.5Y-56.0
X252.5Y-57.0
X252.5Y-58.0
X252.5Y-59.0
X252.5Y-60.0
X252.5Y-61.0
X252.5Y-62.0
X252.5Y-63.0
X252.5Y-64.0
X252.5Y-65.0
X252.5Y-66.0
X252.5Y-67.0
X252.5Y-68.0
X252.5Y-69.0
X252.5Y-70.0
X252.5Y-71.0
X252.5Y-72.0
X252.5Y-73.0
X252.5Y-74.0
X252.5Y-75.0
X252.5Y-76.0
X252.5Y-77.0
X252.5Y-78.0
X252.5Y-79.0
X252.5Y-80.0
X252.5Y-81.0
X252.5Y-82.0
X252.5Y-83.0
X252.5Y-84.0
X252.5Y-85.0
X252.5Y-86.0
X252.5Y-87.0
X252.5Y-88.0
X252.5Y-89.0
X252.5Y-90.0
X252.5Y-91.0
X252.5Y-92.0
X252.5Y-93.0
X252.5Y-94.0
X252.5Y-95.0
X252.5Y-96.0
X252.5Y-97.0
X252.5Y-98.0
X252.5Y-99.0
X252.5Y-100.0
T3
X138.23Y-39.02
X140.682Y-51.26
X140.682Y-53.26
X140.77Y-39.02
X142.682Y-51.26
X142.682Y-53.26
X144.682Y-51.26
X144.682Y-53.26
T4
X188.0Y-80.5
X188.0Y-85.5
X188.0Y-90.5
X188.0Y-95.5
X190.5Y-80.5
X190.5Y-85.5
X190.5Y-90.5
X190.5Y-95.5
X193.0Y-80.5
X193.0Y-85.5
X193.0Y-90.5
X193.0Y-95.5
X195.5Y-80.5
X195.5Y-85.5
X195.5Y-90.5
X195.5Y-95.5
X198.0Y-80.5
X198.0Y-85.5
X198.0Y-90.5
X198.0Y-95.5
X200.5Y-80.5
X200.5Y-85.5
X200.5Y-90.5
X200.5Y-95.5
X203.0Y-80.5
X203.0Y-85.5
X203.0Y-90.5
X203.0Y-95.5
X205.5Y-80.5
X205.5Y-85.5
X205.5Y-90.5
X205.5Y-95.5
X208.0Y-80.5
X208.0Y-85.5
X208.0Y-90.5
X208.0Y-95.5
X210.5Y-80.5
X210.5Y-85.5
X210.5Y-90.5
X210.5Y-95.5
X213.0Y-80.5
X213.0Y-85.5
X213.0Y-90.5
X213.0Y-95.5
X215.5Y-80.5
X215.5Y-85.5
X215.5Y-90.5
X215.5Y-95.5
X221.5Y-55.415
X221.5Y-60.415
X221.5Y-65.215
X221.5Y-70.415
X221.5Y-75.415
X221.5Y-80.415
X221.5Y-85.5
X221.5Y-90.5
X221.5Y-95.5
X224.0Y-55.415
X224.0Y-60.415
X224.0Y-65.215
X224.0Y-70.415
X224.0Y-75.415
X224.0Y-80.415
X224.0Y-85.5
X224.0Y-90.5
X224.0Y-95.5
X226.5Y-55.415
X226.5Y-60.415
X226.5Y-65.215
X226.5Y-70.415
X226.5Y-75.415
X226.5Y-80.415
X226.5Y-85.5
X226.5Y-90.5
X226.5Y-95.5
X229.0Y-55.415
X229.0Y-60.415
X229.0Y-65.215
X229.0Y-70.415
X229.0Y-75.415
X229.0Y-80.415
X229.0Y-85.5
X229.0Y-90.5
X229.0Y-95.5
X231.5Y-55.415
X231.5Y-60.415
X231.5Y-65.215
X231.5Y-70.415
X231.5Y-75.415
X231.5Y-80.415
X231.5Y-85.5
X231.5Y-90.5
X231.5Y-95.5
X234.0Y-55.415
X234.0Y-60.415
X234.0Y-65.215
X234.0Y-70.415
X234.0Y-75.415
X234.0Y-80.415
X234.0Y-85.5
X234.0Y-90.5
X234.0Y-95.5
X236.5Y-55.415
X236.5Y-60.415
X236.5Y-65.215
X236.5Y-70.415
X236.5Y-75.415
X236.5Y-80.415
X236.5Y-85.5
X236.5Y-90.5
X236.5Y-95.5
X239.0Y-55.415
X239.0Y-60.415
X239.0Y-65.215
X239.0Y-70.415
X239.0Y-75.415
X239.0Y-80.415
X239.0Y-85.5
X239.0Y-90.5
X239.0Y-95.5
X241.5Y-55.415
X241.5Y-60.415
X241.5Y-65.215
X241.5Y-70.415
X241.5Y-75.415
X241.5Y-80.415
X241.5Y-85.5
X241.5Y-90.5
X241.5Y-95.5
X244.0Y-55.415
X244.0Y-60.415
X244.0Y-65.215
X244.0Y-70.415
X244.0Y-75.415
X244.0Y-80.415
X244.0Y-85.5
X244.0Y-90.5
X244.0Y-95.5
X246.5Y-55.415
X246.5Y-60.415
X246.5Y-65.215
X246.5Y-70.415
X246.5Y-75.415
X246.5Y-80.415
X246.5Y-85.5
X246.5Y-90.5
X246.5Y-95.5
X249.0Y-55.415
X249.0Y-60.415
X249.0Y-65.215
X249.0Y-70.415
X249.0Y-75.415
X249.0Y-80.415
X249.0Y-85.5
X249.0Y-90.5
X249.0Y-95.5
T5
X152.5Y-60.3
X152.5Y-65.3
X152.5Y-70.5
X152.5Y-75.43
X152.5Y-80.5
X152.5Y-85.3
X152.5Y-90.3
X152.5Y-95.3
X155.0Y-60.3
X155.0Y-65.3
X155.0Y-70.5
X155.0Y-75.43
X155.0Y-80.5
X155.0Y-85.3
X155.0Y-90.3
X155.0Y-95.3
X161.0Y-60.5
X161.0Y-65.3
X161.0Y-70.5
X161.0Y-75.3
X161.0Y-80.5
X161.0Y-85.3
X161.0Y-90.3
X161.0Y-95.3
X163.5Y-60.5
X163.5Y-65.3
X163.5Y-70.5
X163.5Y-75.3
X163.5Y-80.5
X163.5Y-85.3
X163.5Y-90.3
X163.5Y-95.3
X169.5Y-60.5
X169.5Y-65.5
X169.5Y-70.3
X169.5Y-75.3
X169.5Y-80.3
X169.5Y-85.3
X169.5Y-90.3
X169.5Y-95.3
X172.0Y-60.5
X172.0Y-65.5
X172.0Y-70.3
X172.0Y-75.3
X172.0Y-80.3
X172.0Y-85.3
X172.0Y-90.3
X172.0Y-95.3
X178.0Y-60.3
X178.0Y-65.3
X178.0Y-70.3
X178.0Y-75.5
X178.0Y-80.3
X178.0Y-85.3
X178.0Y-90.3
X178.0Y-95.3
X180.5Y-60.3
X180.5Y-65.3
X180.5Y-70.3
X180.5Y-75.5
X180.5Y-80.3
X180.5Y-85.3
X180.5Y-90.3
X180.5Y-95.3
X195.5Y-38.5
X198.0Y-38.5
X221.25Y-45.5
X221.25Y-50.5
X223.75Y-45.5
X223.75Y-50.5
X229.75Y-45.5
X229.75Y-50.5
X232.25Y-45.5
X232.25Y-50.5
X238.5Y-45.5
X238.5Y-50.5
X241.0Y-45.5
X241.0Y-50.5
X247.0Y-45.5
X247.0Y-50.5
X249.5Y-45.5
X249.5Y-50.5
T6
X131.88Y-38.29
X131.88Y-40.83
X131.88Y-43.37
X131.88Y-45.91
X131.88Y-48.45
X131.88Y-50.99
X131.88Y-53.53
X131.88Y-56.07
X131.88Y-58.61
X131.88Y-61.15
X131.88Y-63.69
X131.88Y-66.23
X131.88Y-68.77
X131.88Y-71.31
X131.88Y-73.85
X131.88Y-76.39
X131.88Y-78.93
X131.88Y-81.47
X131.88Y-84.01
X131.88Y-86.55
X131.88Y-89.09
X131.88Y-91.63
X131.88Y-94.17
X131.88Y-96.71
X134.42Y-84.01
X134.931Y-44.589
X134.931Y-47.129
X134.931Y-49.669
X134.931Y-52.209
X134.931Y-54.749
X136.96Y-84.01
X139.5Y-84.01
X142.04Y-84.01
X144.58Y-40.83
X144.58Y-84.01
X147.12Y-38.29
X147.12Y-40.83
X147.12Y-43.37
X147.12Y-45.91
X147.12Y-48.45
X147.12Y-50.99
X147.12Y-53.53
X147.12Y-56.07
X147.12Y-58.61
X147.12Y-61.15
X147.12Y-63.69
X147.12Y-66.23
X147.12Y-68.77
X147.12Y-71.31
X147.12Y-73.85
X147.12Y-76.39
X147.12Y-78.93
X147.12Y-81.47
X147.12Y-84.01
X147.12Y-86.55
X147.12Y-89.09
X147.12Y-91.63
X147.12Y-94.17
X147.12Y-96.71
M30
