%TF.GenerationSoftware,KiCad,Pcbnew,9.0.2*%
%TF.CreationDate,2026-03-31T22:31:55-04:00*%
%TF.ProjectId,meepolab pcb,6d656570-6f6c-4616-9220-7063622e6b69,rev?*%
%TF.SameCoordinates,Original*%
%TF.FileFunction,Soldermask,Bot*%
%TF.FilePolarity,Negative*%
%FSLAX46Y46*%
G04 Gerber Fmt 4.6, Leading zero omitted, Abs format (unit mm)*
G04 Created by KiCad (PCBNEW 9.0.2) date 2026-03-31 22:31:55*
%MOMM*%
%LPD*%
G01*
G04 APERTURE LIST*
G04 Aperture macros list*
%AMRoundRect*
0 Rectangle with rounded corners*
0 $1 Rounding radius*
0 $2 $3 $4 $5 $6 $7 $8 $9 X,Y pos of 4 corners*
0 Add a 4 corners polygon primitive as box body*
4,1,4,$2,$3,$4,$5,$6,$7,$8,$9,$2,$3,0*
0 Add four circle primitives for the rounded corners*
1,1,$1+$1,$2,$3*
1,1,$1+$1,$4,$5*
1,1,$1+$1,$6,$7*
1,1,$1+$1,$8,$9*
0 Add four rect primitives between the rounded corners*
20,1,$1+$1,$2,$3,$4,$5,0*
20,1,$1+$1,$4,$5,$6,$7,0*
20,1,$1+$1,$6,$7,$8,$9,0*
20,1,$1+$1,$8,$9,$2,$3,0*%
G04 Aperture macros list end*
%ADD10RoundRect,0.112500X0.187500X0.112500X-0.187500X0.112500X-0.187500X-0.112500X0.187500X-0.112500X0*%
%ADD11R,1.000000X1.000000*%
%ADD12O,1.700000X1.950000*%
%ADD13RoundRect,0.250000X-0.600000X-0.725000X0.600000X-0.725000X0.600000X0.725000X-0.600000X0.725000X0*%
%ADD14RoundRect,0.100000X0.130000X0.100000X-0.130000X0.100000X-0.130000X-0.100000X0.130000X-0.100000X0*%
%ADD15O,1.700000X2.000000*%
%ADD16RoundRect,0.250000X-0.600000X-0.750000X0.600000X-0.750000X0.600000X0.750000X-0.600000X0.750000X0*%
%ADD17RoundRect,0.225000X-0.225000X-0.375000X0.225000X-0.375000X0.225000X0.375000X-0.225000X0.375000X0*%
%ADD18RoundRect,0.135000X-0.135000X-0.185000X0.135000X-0.185000X0.135000X0.185000X-0.135000X0.185000X0*%
%ADD19RoundRect,0.100000X-0.130000X-0.100000X0.130000X-0.100000X0.130000X0.100000X-0.130000X0.100000X0*%
%ADD20C,1.300000*%
%ADD21R,1.300000X1.300000*%
%ADD22C,1.600000*%
%ADD23R,1.600000X1.600000*%
%ADD24RoundRect,0.250000X-0.262500X-0.450000X0.262500X-0.450000X0.262500X0.450000X-0.262500X0.450000X0*%
%ADD25RoundRect,0.150000X0.825000X0.150000X-0.825000X0.150000X-0.825000X-0.150000X0.825000X-0.150000X0*%
G04 APERTURE END LIST*
D10*
%TO.C,D40*%
X191550000Y-72500000D03*
X189450000Y-72500000D03*
%TD*%
D11*
%TO.C,H1*%
X196000000Y-64000000D03*
%TD*%
D12*
%TO.C,J21*%
X249000000Y-70415000D03*
X246500000Y-70415000D03*
X244000000Y-70415000D03*
X241500000Y-70415000D03*
X239000000Y-70415000D03*
X236500000Y-70415000D03*
X234000000Y-70415000D03*
X231500000Y-70415000D03*
X229000000Y-70415000D03*
X226500000Y-70415000D03*
X224000000Y-70415000D03*
D13*
X221500000Y-70415000D03*
%TD*%
D14*
%TO.C,C2*%
X208680000Y-61000000D03*
X209320000Y-61000000D03*
%TD*%
D10*
%TO.C,D79*%
X213950000Y-72500000D03*
X216050000Y-72500000D03*
%TD*%
%TO.C,D80*%
X216050000Y-74500000D03*
X213950000Y-74500000D03*
%TD*%
D15*
%TO.C,J20*%
X241000000Y-45500000D03*
D16*
X238500000Y-45500000D03*
%TD*%
D15*
%TO.C,J15*%
X223750000Y-45500000D03*
D16*
X221250000Y-45500000D03*
%TD*%
D15*
%TO.C,J17*%
X232250000Y-45500000D03*
D16*
X229750000Y-45500000D03*
%TD*%
%TO.C,J18*%
X247000000Y-45500000D03*
D15*
X249500000Y-45500000D03*
%TD*%
D12*
%TO.C,J3*%
X249000000Y-65215000D03*
X246500000Y-65215000D03*
X244000000Y-65215000D03*
X241500000Y-65215000D03*
X239000000Y-65215000D03*
X236500000Y-65215000D03*
X234000000Y-65215000D03*
X231500000Y-65215000D03*
X229000000Y-65215000D03*
X226500000Y-65215000D03*
X224000000Y-65215000D03*
D13*
X221500000Y-65215000D03*
%TD*%
D12*
%TO.C,J10*%
X215500000Y-90500000D03*
X213000000Y-90500000D03*
X210500000Y-90500000D03*
X208000000Y-90500000D03*
X205500000Y-90500000D03*
X203000000Y-90500000D03*
X200500000Y-90500000D03*
X198000000Y-90500000D03*
X195500000Y-90500000D03*
X193000000Y-90500000D03*
X190500000Y-90500000D03*
D13*
X188000000Y-90500000D03*
%TD*%
D12*
%TO.C,J5*%
X215500000Y-80500000D03*
X213000000Y-80500000D03*
X210500000Y-80500000D03*
X208000000Y-80500000D03*
X205500000Y-80500000D03*
X203000000Y-80500000D03*
X200500000Y-80500000D03*
X198000000Y-80500000D03*
X195500000Y-80500000D03*
X193000000Y-80500000D03*
X190500000Y-80500000D03*
D13*
X188000000Y-80500000D03*
%TD*%
D12*
%TO.C,J12*%
X215500000Y-95500000D03*
X213000000Y-95500000D03*
X210500000Y-95500000D03*
X208000000Y-95500000D03*
X205500000Y-95500000D03*
X203000000Y-95500000D03*
X200500000Y-95500000D03*
X198000000Y-95500000D03*
X195500000Y-95500000D03*
X193000000Y-95500000D03*
X190500000Y-95500000D03*
D13*
X188000000Y-95500000D03*
%TD*%
D12*
%TO.C,J6*%
X215500000Y-85500000D03*
X213000000Y-85500000D03*
X210500000Y-85500000D03*
X208000000Y-85500000D03*
X205500000Y-85500000D03*
X203000000Y-85500000D03*
X200500000Y-85500000D03*
X198000000Y-85500000D03*
X195500000Y-85500000D03*
X193000000Y-85500000D03*
X190500000Y-85500000D03*
D13*
X188000000Y-85500000D03*
%TD*%
D17*
%TO.C,D91*%
X210500000Y-47500000D03*
X213800000Y-47500000D03*
%TD*%
D18*
%TO.C,R37*%
X211270000Y-45500000D03*
X212290000Y-45500000D03*
%TD*%
D17*
%TO.C,D89*%
X210650000Y-52500000D03*
X213950000Y-52500000D03*
%TD*%
D19*
%TO.C,C5*%
X211125000Y-44000000D03*
X211765000Y-44000000D03*
%TD*%
D17*
%TO.C,D90*%
X210500000Y-50000000D03*
X213800000Y-50000000D03*
%TD*%
%TO.C,D83*%
X205150000Y-52500000D03*
X208450000Y-52500000D03*
%TD*%
D18*
%TO.C,R35*%
X205770000Y-45500000D03*
X206790000Y-45500000D03*
%TD*%
D19*
%TO.C,C3*%
X205625000Y-44000000D03*
X206265000Y-44000000D03*
%TD*%
D17*
%TO.C,D84*%
X205500000Y-50000000D03*
X208800000Y-50000000D03*
%TD*%
%TO.C,D85*%
X205500000Y-47500000D03*
X208800000Y-47500000D03*
%TD*%
%TO.C,D92*%
X197500000Y-52500000D03*
X194200000Y-52500000D03*
%TD*%
D12*
%TO.C,J11*%
X249000000Y-55415000D03*
X246500000Y-55415000D03*
X244000000Y-55415000D03*
X241500000Y-55415000D03*
X239000000Y-55415000D03*
X236500000Y-55415000D03*
X234000000Y-55415000D03*
X231500000Y-55415000D03*
X229000000Y-55415000D03*
X226500000Y-55415000D03*
X224000000Y-55415000D03*
D13*
X221500000Y-55415000D03*
%TD*%
D17*
%TO.C,D94*%
X197500000Y-47500000D03*
X194200000Y-47500000D03*
%TD*%
D19*
%TO.C,C6*%
X195815000Y-44000000D03*
X195175000Y-44000000D03*
%TD*%
D17*
%TO.C,D93*%
X197650000Y-50000000D03*
X194350000Y-50000000D03*
%TD*%
D18*
%TO.C,R38*%
X196340000Y-45500000D03*
X195320000Y-45500000D03*
%TD*%
D19*
%TO.C,C10*%
X200965000Y-44000000D03*
X200325000Y-44000000D03*
%TD*%
D18*
%TO.C,R42*%
X201490000Y-45500000D03*
X200470000Y-45500000D03*
%TD*%
D17*
%TO.C,D104*%
X203000000Y-52500000D03*
X199700000Y-52500000D03*
%TD*%
%TO.C,D105*%
X203500000Y-50000000D03*
X200200000Y-50000000D03*
%TD*%
%TO.C,D106*%
X203500000Y-47500000D03*
X200200000Y-47500000D03*
%TD*%
D15*
%TO.C,J16*%
X249500000Y-50500000D03*
D16*
X247000000Y-50500000D03*
%TD*%
%TO.C,D10*%
X161000000Y-60500000D03*
D15*
X163500000Y-60500000D03*
%TD*%
D16*
%TO.C,D2*%
X152500000Y-60300000D03*
D15*
X155000000Y-60300000D03*
%TD*%
%TO.C,D25*%
X180500000Y-60300000D03*
D16*
X178000000Y-60300000D03*
%TD*%
D15*
%TO.C,D19*%
X172000000Y-60500000D03*
D16*
X169500000Y-60500000D03*
%TD*%
D18*
%TO.C,R4*%
X153240000Y-62100000D03*
X154260000Y-62100000D03*
%TD*%
%TO.C,R12*%
X161740000Y-62300000D03*
X162760000Y-62300000D03*
%TD*%
%TO.C,R27*%
X179760000Y-62100000D03*
X178740000Y-62100000D03*
%TD*%
%TO.C,R21*%
X171260000Y-62300000D03*
X170240000Y-62300000D03*
%TD*%
D15*
%TO.C,D9*%
X163500000Y-65300000D03*
D16*
X161000000Y-65300000D03*
%TD*%
D15*
%TO.C,D1*%
X155000000Y-65300000D03*
D16*
X152500000Y-65300000D03*
%TD*%
D15*
%TO.C,D32*%
X180500000Y-65300000D03*
D16*
X178000000Y-65300000D03*
%TD*%
%TO.C,D20*%
X169500000Y-65500000D03*
D15*
X172000000Y-65500000D03*
%TD*%
D18*
%TO.C,R11*%
X161740000Y-67100000D03*
X162760000Y-67100000D03*
%TD*%
%TO.C,R3*%
X154260000Y-67100000D03*
X153240000Y-67100000D03*
%TD*%
%TO.C,R34*%
X179760000Y-67100000D03*
X178740000Y-67100000D03*
%TD*%
%TO.C,R22*%
X170240000Y-67300000D03*
X171260000Y-67300000D03*
%TD*%
D15*
%TO.C,D5*%
X155000000Y-80500000D03*
D16*
X152500000Y-80500000D03*
%TD*%
D15*
%TO.C,D11*%
X163500000Y-70500000D03*
D16*
X161000000Y-70500000D03*
%TD*%
%TO.C,D26*%
X178000000Y-70300000D03*
D15*
X180500000Y-70300000D03*
%TD*%
%TO.C,D23*%
X172000000Y-70300000D03*
D16*
X169500000Y-70300000D03*
%TD*%
D18*
%TO.C,R13*%
X162760000Y-72300000D03*
X161740000Y-72300000D03*
%TD*%
%TO.C,R7*%
X154260000Y-82300000D03*
X153240000Y-82300000D03*
%TD*%
%TO.C,R28*%
X178740000Y-72100000D03*
X179760000Y-72100000D03*
%TD*%
%TO.C,R25*%
X171260000Y-72100000D03*
X170240000Y-72100000D03*
%TD*%
D15*
%TO.C,D12*%
X163500000Y-75300000D03*
D16*
X161000000Y-75300000D03*
%TD*%
D15*
%TO.C,D4*%
X155000000Y-75429712D03*
D16*
X152500000Y-75429712D03*
%TD*%
D15*
%TO.C,D28*%
X180500000Y-75500000D03*
D16*
X178000000Y-75500000D03*
%TD*%
D15*
%TO.C,D18*%
X172000000Y-75300000D03*
D16*
X169500000Y-75300000D03*
%TD*%
D18*
%TO.C,R14*%
X161740000Y-77100000D03*
X162760000Y-77100000D03*
%TD*%
%TO.C,R6*%
X154260000Y-77229712D03*
X153240000Y-77229712D03*
%TD*%
%TO.C,R30*%
X179760000Y-77300000D03*
X178740000Y-77300000D03*
%TD*%
%TO.C,R20*%
X171260000Y-77100000D03*
X170240000Y-77100000D03*
%TD*%
D15*
%TO.C,D13*%
X163500000Y-80500000D03*
D16*
X161000000Y-80500000D03*
%TD*%
D18*
%TO.C,R15*%
X161740000Y-82300000D03*
X162760000Y-82300000D03*
%TD*%
%TO.C,R16*%
X161740000Y-92100000D03*
X162760000Y-92100000D03*
%TD*%
%TO.C,R18*%
X161740000Y-87100000D03*
X162760000Y-87100000D03*
%TD*%
D16*
%TO.C,D14*%
X161000000Y-90300000D03*
D15*
X163500000Y-90300000D03*
%TD*%
D18*
%TO.C,R17*%
X161740000Y-97100000D03*
X162760000Y-97100000D03*
%TD*%
D16*
%TO.C,D16*%
X161000000Y-85300000D03*
D15*
X163500000Y-85300000D03*
%TD*%
D16*
%TO.C,D15*%
X161000000Y-95300000D03*
D15*
X163500000Y-95300000D03*
%TD*%
D18*
%TO.C,R9*%
X154260000Y-92100000D03*
X153240000Y-92100000D03*
%TD*%
D15*
%TO.C,D6*%
X155000000Y-85300000D03*
D16*
X152500000Y-85300000D03*
%TD*%
D15*
%TO.C,D8*%
X155000000Y-95300000D03*
D16*
X152500000Y-95300000D03*
%TD*%
D18*
%TO.C,R8*%
X154260000Y-87100000D03*
X153240000Y-87100000D03*
%TD*%
%TO.C,R10*%
X154260000Y-97100000D03*
X153240000Y-97100000D03*
%TD*%
%TO.C,R5*%
X154260000Y-72300000D03*
X153240000Y-72300000D03*
%TD*%
D15*
%TO.C,D3*%
X155000000Y-70500000D03*
D16*
X152500000Y-70500000D03*
%TD*%
D15*
%TO.C,D7*%
X155000000Y-90300000D03*
D16*
X152500000Y-90300000D03*
%TD*%
D18*
%TO.C,R33*%
X179760000Y-82100000D03*
X178740000Y-82100000D03*
%TD*%
%TO.C,R31*%
X178740000Y-92100000D03*
X179760000Y-92100000D03*
%TD*%
%TO.C,R29*%
X179760000Y-87100000D03*
X178740000Y-87100000D03*
%TD*%
%TO.C,R32*%
X179760000Y-97100000D03*
X178740000Y-97100000D03*
%TD*%
D16*
%TO.C,D27*%
X178000000Y-85300000D03*
D15*
X180500000Y-85300000D03*
%TD*%
D16*
%TO.C,D29*%
X178000000Y-90300000D03*
D15*
X180500000Y-90300000D03*
%TD*%
%TO.C,D31*%
X180500000Y-80300000D03*
D16*
X178000000Y-80300000D03*
%TD*%
%TO.C,D30*%
X178000000Y-95300000D03*
D15*
X180500000Y-95300000D03*
%TD*%
D18*
%TO.C,R19*%
X171260000Y-97100000D03*
X170240000Y-97100000D03*
%TD*%
%TO.C,R26*%
X171260000Y-92100000D03*
X170240000Y-92100000D03*
%TD*%
%TO.C,R24*%
X171260000Y-87100000D03*
X170240000Y-87100000D03*
%TD*%
%TO.C,R23*%
X171260000Y-82100000D03*
X170240000Y-82100000D03*
%TD*%
D15*
%TO.C,D24*%
X172000000Y-90300000D03*
D16*
X169500000Y-90300000D03*
%TD*%
D15*
%TO.C,D17*%
X172000000Y-95300000D03*
D16*
X169500000Y-95300000D03*
%TD*%
D15*
%TO.C,D22*%
X172000000Y-85300000D03*
D16*
X169500000Y-85300000D03*
%TD*%
D15*
%TO.C,D21*%
X172000000Y-80300000D03*
D16*
X169500000Y-80300000D03*
%TD*%
D20*
%TO.C,U1*%
X138230000Y-39020000D03*
X140770000Y-39020000D03*
X144681600Y-53260000D03*
X142681600Y-53260000D03*
X140681600Y-53260000D03*
X140681600Y-51260000D03*
X142681600Y-51260000D03*
D21*
X144681600Y-51260000D03*
D22*
X134930800Y-54749200D03*
X134930800Y-52209200D03*
X134930800Y-49669200D03*
X134930800Y-47129200D03*
D23*
X134930800Y-44589200D03*
D22*
X144580000Y-84010000D03*
X142040000Y-84010000D03*
X139500000Y-84010000D03*
X136960000Y-84010000D03*
X134420000Y-84010000D03*
X144580000Y-40830000D03*
X147120000Y-38290000D03*
X147120000Y-40830000D03*
X147120000Y-43370000D03*
X147120000Y-45910000D03*
X147120000Y-48450000D03*
X147120000Y-50990000D03*
X147120000Y-53530000D03*
X147120000Y-56070000D03*
X147120000Y-58610000D03*
X147120000Y-61150000D03*
X147120000Y-63690000D03*
X147120000Y-66230000D03*
X147120000Y-68770000D03*
X147120000Y-71310000D03*
X147120000Y-73850000D03*
X147120000Y-76390000D03*
X147120000Y-78930000D03*
X147120000Y-81470000D03*
X147120000Y-84010000D03*
X147120000Y-86550000D03*
X147120000Y-89090000D03*
X147120000Y-91630000D03*
X147120000Y-94170000D03*
X147120000Y-96710000D03*
X131880000Y-96710000D03*
X131880000Y-94170000D03*
X131880000Y-91630000D03*
X131880000Y-89090000D03*
X131880000Y-86550000D03*
X131880000Y-84010000D03*
X131880000Y-81470000D03*
X131880000Y-78930000D03*
X131880000Y-76390000D03*
X131880000Y-73850000D03*
X131880000Y-71310000D03*
X131880000Y-68770000D03*
X131880000Y-66230000D03*
X131880000Y-63690000D03*
X131880000Y-61150000D03*
X131880000Y-58610000D03*
X131880000Y-56070000D03*
X131880000Y-53530000D03*
X131880000Y-50990000D03*
X131880000Y-48450000D03*
X131880000Y-45910000D03*
X131880000Y-43370000D03*
X131880000Y-40830000D03*
D23*
X131880000Y-38290000D03*
%TD*%
D16*
%TO.C,J13*%
X229750000Y-50500000D03*
D15*
X232250000Y-50500000D03*
%TD*%
D14*
%TO.C,C1*%
X194475000Y-61500000D03*
X193835000Y-61500000D03*
%TD*%
D24*
%TO.C,R1*%
X194000000Y-66500000D03*
X195825000Y-66500000D03*
%TD*%
D13*
%TO.C,J9*%
X221500000Y-95500000D03*
D12*
X224000000Y-95500000D03*
X226500000Y-95500000D03*
X229000000Y-95500000D03*
X231500000Y-95500000D03*
X234000000Y-95500000D03*
X236500000Y-95500000D03*
X239000000Y-95500000D03*
X241500000Y-95500000D03*
X244000000Y-95500000D03*
X246500000Y-95500000D03*
X249000000Y-95500000D03*
%TD*%
D16*
%TO.C,J14*%
X221250000Y-50500000D03*
D15*
X223750000Y-50500000D03*
%TD*%
D11*
%TO.C,H2*%
X210500000Y-65000000D03*
%TD*%
D13*
%TO.C,J4*%
X221500000Y-85500000D03*
D12*
X224000000Y-85500000D03*
X226500000Y-85500000D03*
X229000000Y-85500000D03*
X231500000Y-85500000D03*
X234000000Y-85500000D03*
X236500000Y-85500000D03*
X239000000Y-85500000D03*
X241500000Y-85500000D03*
X244000000Y-85500000D03*
X246500000Y-85500000D03*
X249000000Y-85500000D03*
%TD*%
D24*
%TO.C,R2*%
X208675000Y-67000000D03*
X210500000Y-67000000D03*
%TD*%
D13*
%TO.C,J7*%
X221500000Y-75415000D03*
D12*
X224000000Y-75415000D03*
X226500000Y-75415000D03*
X229000000Y-75415000D03*
X231500000Y-75415000D03*
X234000000Y-75415000D03*
X236500000Y-75415000D03*
X239000000Y-75415000D03*
X241500000Y-75415000D03*
X244000000Y-75415000D03*
X246500000Y-75415000D03*
X249000000Y-75415000D03*
%TD*%
D16*
%TO.C,J19*%
X238500000Y-50500000D03*
D15*
X241000000Y-50500000D03*
%TD*%
D13*
%TO.C,J1*%
X221500000Y-60415000D03*
D12*
X224000000Y-60415000D03*
X226500000Y-60415000D03*
X229000000Y-60415000D03*
X231500000Y-60415000D03*
X234000000Y-60415000D03*
X236500000Y-60415000D03*
X239000000Y-60415000D03*
X241500000Y-60415000D03*
X244000000Y-60415000D03*
X246500000Y-60415000D03*
X249000000Y-60415000D03*
%TD*%
D13*
%TO.C,J2*%
X221500000Y-80415000D03*
D12*
X224000000Y-80415000D03*
X226500000Y-80415000D03*
X229000000Y-80415000D03*
X231500000Y-80415000D03*
X234000000Y-80415000D03*
X236500000Y-80415000D03*
X239000000Y-80415000D03*
X241500000Y-80415000D03*
X244000000Y-80415000D03*
X246500000Y-80415000D03*
X249000000Y-80415000D03*
%TD*%
D13*
%TO.C,J8*%
X221500000Y-90500000D03*
D12*
X224000000Y-90500000D03*
X226500000Y-90500000D03*
X229000000Y-90500000D03*
X231500000Y-90500000D03*
X234000000Y-90500000D03*
X236500000Y-90500000D03*
X239000000Y-90500000D03*
X241500000Y-90500000D03*
X244000000Y-90500000D03*
X246500000Y-90500000D03*
X249000000Y-90500000D03*
%TD*%
D10*
%TO.C,D70*%
X209050000Y-74500000D03*
X206950000Y-74500000D03*
%TD*%
%TO.C,D72*%
X209050000Y-78500000D03*
X206950000Y-78500000D03*
%TD*%
D25*
%TO.C,U7*%
X187450000Y-45380000D03*
X187450000Y-46650000D03*
X187450000Y-47920000D03*
X187450000Y-49190000D03*
X187450000Y-50460000D03*
X187450000Y-51730000D03*
X187450000Y-53000000D03*
X187450000Y-54270000D03*
X182500000Y-54270000D03*
X182500000Y-53000000D03*
X182500000Y-51730000D03*
X182500000Y-50460000D03*
X182500000Y-49190000D03*
X182500000Y-47920000D03*
X182500000Y-46650000D03*
X182500000Y-45380000D03*
%TD*%
D10*
%TO.C,D45*%
X191550000Y-74500000D03*
X189450000Y-74500000D03*
%TD*%
%TO.C,D62*%
X202050000Y-78500000D03*
X199950000Y-78500000D03*
%TD*%
%TO.C,D82*%
X216050000Y-78500000D03*
X213950000Y-78500000D03*
%TD*%
%TO.C,D36*%
X195050000Y-70500000D03*
X192950000Y-70500000D03*
%TD*%
%TO.C,D43*%
X184550000Y-74500000D03*
X182450000Y-74500000D03*
%TD*%
D25*
%TO.C,U5*%
X166500000Y-45260000D03*
X166500000Y-46530000D03*
X166500000Y-47800000D03*
X166500000Y-49070000D03*
X166500000Y-50340000D03*
X166500000Y-51610000D03*
X166500000Y-52880000D03*
X166500000Y-54150000D03*
X161550000Y-54150000D03*
X161550000Y-52880000D03*
X161550000Y-51610000D03*
X161550000Y-50340000D03*
X161550000Y-49070000D03*
X161550000Y-47800000D03*
X161550000Y-46530000D03*
X161550000Y-45260000D03*
%TD*%
D10*
%TO.C,D47*%
X198550000Y-74500000D03*
X196450000Y-74500000D03*
%TD*%
%TO.C,D74*%
X212550000Y-72500000D03*
X210450000Y-72500000D03*
%TD*%
%TO.C,D107*%
X219550000Y-70500000D03*
X217450000Y-70500000D03*
%TD*%
%TO.C,D46*%
X195050000Y-74500000D03*
X192950000Y-74500000D03*
%TD*%
%TO.C,D64*%
X205550000Y-72500000D03*
X203450000Y-72500000D03*
%TD*%
D25*
%TO.C,U4*%
X157000000Y-45300000D03*
X157000000Y-46570000D03*
X157000000Y-47840000D03*
X157000000Y-49110000D03*
X157000000Y-50380000D03*
X157000000Y-51650000D03*
X157000000Y-52920000D03*
X157000000Y-54190000D03*
X152050000Y-54190000D03*
X152050000Y-52920000D03*
X152050000Y-51650000D03*
X152050000Y-50380000D03*
X152050000Y-49110000D03*
X152050000Y-47840000D03*
X152050000Y-46570000D03*
X152050000Y-45300000D03*
%TD*%
D10*
%TO.C,D57*%
X198550000Y-78500000D03*
X196450000Y-78500000D03*
%TD*%
%TO.C,D63*%
X205550000Y-70500000D03*
X203450000Y-70500000D03*
%TD*%
%TO.C,D110*%
X219550000Y-76500000D03*
X217450000Y-76500000D03*
%TD*%
%TO.C,D73*%
X212550000Y-70500000D03*
X210450000Y-70500000D03*
%TD*%
%TO.C,D60*%
X202050000Y-74500000D03*
X199950000Y-74500000D03*
%TD*%
%TO.C,D42*%
X198550000Y-72500000D03*
X196450000Y-72500000D03*
%TD*%
%TO.C,D78*%
X216050000Y-70500000D03*
X213950000Y-70500000D03*
%TD*%
%TO.C,D68*%
X209050000Y-70500000D03*
X206950000Y-70500000D03*
%TD*%
%TO.C,D66*%
X205550000Y-76500000D03*
X203450000Y-76500000D03*
%TD*%
%TO.C,D44*%
X188050000Y-74500000D03*
X185950000Y-74500000D03*
%TD*%
%TO.C,D51*%
X195050000Y-76500000D03*
X192950000Y-76500000D03*
%TD*%
%TO.C,D59*%
X202050000Y-72500000D03*
X199950000Y-72500000D03*
%TD*%
%TO.C,D111*%
X219550000Y-78500000D03*
X217450000Y-78500000D03*
%TD*%
%TO.C,D33*%
X184550000Y-70500000D03*
X182450000Y-70500000D03*
%TD*%
%TO.C,D56*%
X195050000Y-78500000D03*
X192950000Y-78500000D03*
%TD*%
D25*
%TO.C,U6*%
X176500000Y-45300000D03*
X176500000Y-46570000D03*
X176500000Y-47840000D03*
X176500000Y-49110000D03*
X176500000Y-50380000D03*
X176500000Y-51650000D03*
X176500000Y-52920000D03*
X176500000Y-54190000D03*
X171550000Y-54190000D03*
X171550000Y-52920000D03*
X171550000Y-51650000D03*
X171550000Y-50380000D03*
X171550000Y-49110000D03*
X171550000Y-47840000D03*
X171550000Y-46570000D03*
X171550000Y-45300000D03*
%TD*%
D10*
%TO.C,D49*%
X188050000Y-76500000D03*
X185950000Y-76500000D03*
%TD*%
%TO.C,D65*%
X205550000Y-74500000D03*
X203450000Y-74500000D03*
%TD*%
%TO.C,D61*%
X202050000Y-76500000D03*
X199950000Y-76500000D03*
%TD*%
%TO.C,D39*%
X188050000Y-72500000D03*
X185950000Y-72500000D03*
%TD*%
%TO.C,D53*%
X184550000Y-78500000D03*
X182450000Y-78500000D03*
%TD*%
%TO.C,D52*%
X198550000Y-76500000D03*
X196450000Y-76500000D03*
%TD*%
%TO.C,D58*%
X202050000Y-70500000D03*
X199950000Y-70500000D03*
%TD*%
%TO.C,D55*%
X191550000Y-78500000D03*
X189450000Y-78500000D03*
%TD*%
%TO.C,D69*%
X209050000Y-72500000D03*
X206950000Y-72500000D03*
%TD*%
%TO.C,D108*%
X219550000Y-72500000D03*
X217450000Y-72500000D03*
%TD*%
%TO.C,D77*%
X212550000Y-78500000D03*
X210450000Y-78500000D03*
%TD*%
%TO.C,D67*%
X205550000Y-78500000D03*
X203450000Y-78500000D03*
%TD*%
%TO.C,D38*%
X184550000Y-72500000D03*
X182450000Y-72500000D03*
%TD*%
%TO.C,D35*%
X191550000Y-70500000D03*
X189450000Y-70500000D03*
%TD*%
%TO.C,D54*%
X188050000Y-78500000D03*
X185950000Y-78500000D03*
%TD*%
%TO.C,D109*%
X219550000Y-74500000D03*
X217450000Y-74500000D03*
%TD*%
%TO.C,D34*%
X188050000Y-70500000D03*
X185950000Y-70500000D03*
%TD*%
%TO.C,D41*%
X195050000Y-72500000D03*
X192950000Y-72500000D03*
%TD*%
%TO.C,D71*%
X209050000Y-76500000D03*
X206950000Y-76500000D03*
%TD*%
%TO.C,D81*%
X216050000Y-76500000D03*
X213950000Y-76500000D03*
%TD*%
%TO.C,D37*%
X198550000Y-70500000D03*
X196450000Y-70500000D03*
%TD*%
%TO.C,D50*%
X191550000Y-76500000D03*
X189450000Y-76500000D03*
%TD*%
%TO.C,D48*%
X184550000Y-76500000D03*
X182450000Y-76500000D03*
%TD*%
%TO.C,D76*%
X212550000Y-76500000D03*
X210450000Y-76500000D03*
%TD*%
%TO.C,D75*%
X212550000Y-74500000D03*
X210450000Y-74500000D03*
%TD*%
M02*
