M48
; DRILL file {KiCad 9.0.2} date 2026-03-31T22:31:56-0400
; FORMAT={-:-/ absolute / metric / decimal}
; #@! TF.CreationDate,2026-03-31T22:31:56-04:00
; #@! TF.GenerationSoftware,Kicad,Pcbnew,9.0.2
; #@! TF.FileFunction,Plated,1,4,PTH
FMAT,2
METRIC
; #@! TA.AperFunction,Plated,PTH,ViaDrill
T1C0.300
; #@! TA.AperFunction,Plated,PTH,ComponentDrill
T2C0.800
; #@! TA.AperFunction,Plated,PTH,ComponentDrill
T3C0.950
; #@! TA.AperFunction,Plated,PTH,ComponentDrill
T4C1.000
; #@! TA.AperFunction,Plated,PTH,ComponentDrill
T5C1.100
%
G90
G05
T1
X148.221Y-50.0
X149.5Y-48.0
X150.35Y-50.15
X151.0Y-58.5
X152.0Y-52.92
X152.05Y-54.19
X153.624Y-48.724
X154.35Y-51.905
X154.4Y-47.4
X154.4Y-58.5
X155.0Y-48.6
X155.6Y-47.4
X155.9Y-58.5
X156.15Y-50.392
X157.0Y-54.19
X158.5Y-49.0
X158.602Y-58.5
X159.256Y-51.763
X159.5Y-48.0
X161.55Y-49.07
X161.55Y-54.15
X163.5Y-49.0
X164.193Y-48.6
X164.915Y-48.999
X166.5Y-45.26
X166.5Y-49.07
X166.5Y-50.34
X166.5Y-51.61
X169.0Y-51.6
X169.5Y-48.0
X171.55Y-46.57
X171.55Y-49.11
X171.55Y-54.19
X173.025Y-49.003
X174.0Y-49.0
X174.15Y-51.905
X174.2Y-74.0
X174.8Y-49.0
X175.4Y-56.25
X176.5Y-45.3
X176.5Y-50.38
X176.5Y-52.92
X176.5Y-54.19
X180.5Y-48.0
X181.805Y-46.555
X182.5Y-49.19
X184.65Y-49.405
X187.45Y-45.38
X187.45Y-51.73
X187.45Y-54.27
X189.0Y-47.0
X189.6Y-49.0
X190.2Y-50.5
T2
X138.23Y-39.02
X140.682Y-51.26
X140.682Y-53.26
X140.77Y-39.02
X142.682Y-51.26
X142.682Y-53.26
X144.682Y-51.26
X144.682Y-53.26
T3
X188.0Y-80.5
X188.0Y-85.5
X188.0Y-90.5
X188.0Y-95.5
X190.5Y-80.5
X190.5Y-85.5
X190.5Y-90.5
X190.5Y-95.5
X193.0Y-80.5
X193.0Y-85.5
X193.0Y-90.5
X193.0Y-95.5
X195.5Y-80.5
X195.5Y-85.5
X195.5Y-90.5
X195.5Y-95.5
X198.0Y-80.5
X198.0Y-85.5
X198.0Y-90.5
X198.0Y-95.5
X200.5Y-80.5
X200.5Y-85.5
X200.5Y-90.5
X200.5Y-95.5
X203.0Y-80.5
X203.0Y-85.5
X203.0Y-90.5
X203.0Y-95.5
X205.5Y-80.5
X205.5Y-85.5
X205.5Y-90.5
X205.5Y-95.5
X208.0Y-80.5
X208.0Y-85.5
X208.0Y-90.5
X208.0Y-95.5
X210.5Y-80.5
X210.5Y-85.5
X210.5Y-90.5
X210.5Y-95.5
X213.0Y-80.5
X213.0Y-85.5
X213.0Y-90.5
X213.0Y-95.5
X215.5Y-80.5
X215.5Y-85.5
X215.5Y-90.5
X215.5Y-95.5
X221.5Y-55.415
X221.5Y-60.415
X221.5Y-65.215
X221.5Y-70.415
X221.5Y-75.415
X221.5Y-80.415
X221.5Y-85.5
X221.5Y-90.5
X221.5Y-95.5
X224.0Y-55.415
X224.0Y-60.415
X224.0Y-65.215
X224.0Y-70.415
X224.0Y-75.415
X224.0Y-80.415
X224.0Y-85.5
X224.0Y-90.5
X224.0Y-95.5
X226.5Y-55.415
X226.5Y-60.415
X226.5Y-65.215
X226.5Y-70.415
X226.5Y-75.415
X226.5Y-80.415
X226.5Y-85.5
X226.5Y-90.5
X226.5Y-95.5
X229.0Y-55.415
X229.0Y-60.415
X229.0Y-65.215
X229.0Y-70.415
X229.0Y-75.415
X229.0Y-80.415
X229.0Y-85.5
X229.0Y-90.5
X229.0Y-95.5
X231.5Y-55.415
X231.5Y-60.415
X231.5Y-65.215
X231.5Y-70.415
X231.5Y-75.415
X231.5Y-80.415
X231.5Y-85.5
X231.5Y-90.5
X231.5Y-95.5
X234.0Y-55.415
X234.0Y-60.415
X234.0Y-65.215
X234.0Y-70.415
X234.0Y-75.415
X234.0Y-80.415
X234.0Y-85.5
X234.0Y-90.5
X234.0Y-95.5
X236.5Y-55.415
X236.5Y-60.415
X236.5Y-65.215
X236.5Y-70.415
X236.5Y-75.415
X236.5Y-80.415
X236.5Y-85.5
X236.5Y-90.5
X236.5Y-95.5
X239.0Y-55.415
X239.0Y-60.415
X239.0Y-65.215
X239.0Y-70.415
X239.0Y-75.415
X239.0Y-80.415
X239.0Y-85.5
X239.0Y-90.5
X239.0Y-95.5
X241.5Y-55.415
X241.5Y-60.415
X241.5Y-65.215
X241.5Y-70.415
X241.5Y-75.415
X241.5Y-80.415
X241.5Y-85.5
X241.5Y-90.5
X241.5Y-95.5
X244.0Y-55.415
X244.0Y-60.415
X244.0Y-65.215
X244.0Y-70.415
X244.0Y-75.415
X244.0Y-80.415
X244.0Y-85.5
X244.0Y-90.5
X244.0Y-95.5
X246.5Y-55.415
X246.5Y-60.415
X246.5Y-65.215
X246.5Y-70.415
X246.5Y-75.415
X246.5Y-80.415
X246.5Y-85.5
X246.5Y-90.5
X246.5Y-95.5
X249.0Y-55.415
X249.0Y-60.415
X249.0Y-65.215
X249.0Y-70.415
X249.0Y-75.415
X249.0Y-80.415
X249.0Y-85.5
X249.0Y-90.5
X249.0Y-95.5
T4
X152.5Y-60.3
X152.5Y-65.3
X152.5Y-70.5
X152.5Y-75.43
X152.5Y-80.5
X152.5Y-85.3
X152.5Y-90.3
X152.5Y-95.3
X155.0Y-60.3
X155.0Y-65.3
X155.0Y-70.5
X155.0Y-75.43
X155.0Y-80.5
X155.0Y-85.3
X155.0Y-90.3
X155.0Y-95.3
X161.0Y-60.5
X161.0Y-65.3
X161.0Y-70.5
X161.0Y-75.3
X161.0Y-80.5
X161.0Y-85.3
X161.0Y-90.3
X161.0Y-95.3
X163.5Y-60.5
X163.5Y-65.3
X163.5Y-70.5
X163.5Y-75.3
X163.5Y-80.5
X163.5Y-85.3
X163.5Y-90.3
X163.5Y-95.3
X169.5Y-60.5
X169.5Y-65.5
X169.5Y-70.3
X169.5Y-75.3
X169.5Y-80.3
X169.5Y-85.3
X169.5Y-90.3
X169.5Y-95.3
X172.0Y-60.5
X172.0Y-65.5
X172.0Y-70.3
X172.0Y-75.3
X172.0Y-80.3
X172.0Y-85.3
X172.0Y-90.3
X172.0Y-95.3
X178.0Y-60.3
X178.0Y-65.3
X178.0Y-70.3
X178.0Y-75.5
X178.0Y-80.3
X178.0Y-85.3
X178.0Y-90.3
X178.0Y-95.3
X180.5Y-60.3
X180.5Y-65.3
X180.5Y-70.3
X180.5Y-75.5
X180.5Y-80.3
X180.5Y-85.3
X180.5Y-90.3
X180.5Y-95.3
X221.25Y-45.5
X221.25Y-50.5
X223.75Y-45.5
X223.75Y-50.5
X229.75Y-45.5
X229.75Y-50.5
X232.25Y-45.5
X232.25Y-50.5
X238.5Y-45.5
X238.5Y-50.5
X241.0Y-45.5
X241.0Y-50.5
X247.0Y-45.5
X247.0Y-50.5
X249.5Y-45.5
X249.5Y-50.5
T5
X131.88Y-38.29
X131.88Y-40.83
X131.88Y-43.37
X131.88Y-45.91
X131.88Y-48.45
X131.88Y-50.99
X131.88Y-53.53
X131.88Y-56.07
X131.88Y-58.61
X131.88Y-61.15
X131.88Y-63.69
X131.88Y-66.23
X131.88Y-68.77
X131.88Y-71.31
X131.88Y-73.85
X131.88Y-76.39
X131.88Y-78.93
X131.88Y-81.47
X131.88Y-84.01
X131.88Y-86.55
X131.88Y-89.09
X131.88Y-91.63
X131.88Y-94.17
X131.88Y-96.71
X134.42Y-84.01
X134.931Y-44.589
X134.931Y-47.129
X134.931Y-49.669
X134.931Y-52.209
X134.931Y-54.749
X136.96Y-84.01
X139.5Y-84.01
X142.04Y-84.01
X144.58Y-40.83
X144.58Y-84.01
X147.12Y-38.29
X147.12Y-40.83
X147.12Y-43.37
X147.12Y-45.91
X147.12Y-48.45
X147.12Y-50.99
X147.12Y-53.53
X147.12Y-56.07
X147.12Y-58.61
X147.12Y-61.15
X147.12Y-63.69
X147.12Y-66.23
X147.12Y-68.77
X147.12Y-71.31
X147.12Y-73.85
X147.12Y-76.39
X147.12Y-78.93
X147.12Y-81.47
X147.12Y-84.01
X147.12Y-86.55
X147.12Y-89.09
X147.12Y-91.63
X147.12Y-94.17
X147.12Y-96.71
M30
